<?xml version="1.0" encoding="UTF-8"?>
<svg id="Layer_1" data-name="Layer 1" xmlns="http://www.w3.org/2000/svg" viewBox="0 0 290.74 93.14">
  <defs>
    <style>
      .cls-1 {
        fill: #d69a5c;
        fill-rule: evenodd;
      }

      .cls-2 {
        fill: #231f20;
      }
    </style>
  </defs>
  <path class="cls-2" d="M137.38,81.07c-.53,0-1.02,.02-1.45,.07-.43,.05-.8,.1-1.11,.15-.36,.07-.69,.14-.97,.23l.2-1.1c.05,0,.14,0,.24,.01,.11,0,.23,0,.36,.01,.13,0,.27,0,.42,.01,.15,0,.29,0,.42,0,.13,0,.25,0,.35,0,.1,0,.18,0,.22,0h3.88s.12,0,.22,0c.1,0,.22,0,.35,0,.13,0,.27,0,.42,0,.15,0,.29,0,.42-.01,.13,0,.26,0,.36-.01,.11,0,.19,0,.24-.01l.2,1.1c-.29-.08-.62-.16-.98-.23-.31-.05-.68-.1-1.11-.15-.43-.05-.91-.07-1.45-.07v6.49c0,.38,0,.72,.02,1.01,.01,.29,.03,.53,.04,.74,.01,.21,.03,.38,.06,.52,.03,.14,.05,.26,.08,.35v.03h-1.63v-.03c.03-.1,.05-.21,.08-.35,.02-.14,.04-.32,.06-.52,.02-.21,.03-.45,.04-.74,0-.29,.01-.63,.01-1.01v-6.49Zm-9.66,5.35c.26,0,.53,0,.81,0,.28,0,.55,0,.81,0,.26,0,.52,0,.76,0,.25,0,.47,0,.67,0l-1.91-4.32-1.88,4.34h.74Zm4.4,3.8v-.03s.02-.06,.02-.1c0-.04,0-.09,0-.12,0-.14-.02-.3-.06-.47-.04-.17-.11-.38-.22-.64l-.82-1.85c-.25,0-.59-.01-1.01-.01h-2.4c-.33,0-.63,0-.9,.01l-.78,1.8c-.07,.17-.14,.35-.22,.55-.08,.2-.11,.4-.11,.61,0,.06,0,.11,.01,.15,0,.04,.02,.06,.03,.08v.03h-1.39v-.03c.08-.09,.19-.24,.31-.46,.12-.22,.26-.5,.4-.83l3.89-8.64h.54l3.69,8.3c.09,.19,.18,.39,.27,.57,.09,.18,.18,.35,.26,.49,.08,.14,.15,.27,.22,.37,.06,.1,.11,.16,.13,.19v.03h-1.86Zm-16.67-9.77c.1,0,.2,0,.29,.01,.08,0,.16,0,.24,0,.08,0,.15,0,.2,0,.09,0,.23,0,.43-.01,.2,0,.43-.02,.69-.03,.26,0,.53-.02,.81-.03,.28,0,.54-.01,.78-.01,.66,0,1.28,.08,1.88,.24,.59,.16,1.11,.43,1.56,.8,.45,.37,.8,.86,1.07,1.46,.26,.6,.39,1.34,.39,2.22,0,.63-.07,1.19-.21,1.7-.14,.5-.33,.95-.58,1.33-.25,.39-.55,.71-.89,.99-.35,.27-.73,.5-1.15,.67-.42,.18-.87,.31-1.34,.39-.48,.08-.97,.12-1.48,.12-.18,0-.4,0-.66-.02-.26-.01-.51-.03-.77-.04-.26-.01-.5-.03-.73-.04-.23-.01-.41-.02-.53-.02v-.03c.03-.1,.05-.21,.08-.35,.02-.14,.05-.32,.06-.52,.02-.21,.03-.45,.04-.74,0-.29,.01-.63,.01-1.01v-4.42c0-.38,0-.72-.01-1.02,0-.29-.02-.54-.04-.75-.02-.21-.04-.39-.06-.53-.03-.14-.05-.26-.08-.36v-.03Zm1.49,.61c0,.51-.02,1-.03,1.47,0,.2,0,.41-.01,.63,0,.21,0,.42,0,.63,0,.21,0,.4,0,.59,0,.19,0,.35,0,.5,0,.3,0,.67,0,1.1,0,.43,0,.87,.02,1.32,0,.45,.02,.89,.03,1.31,.01,.42,.03,.76,.05,1.04,.06,0,.15,.02,.26,.03,.11,.01,.22,.02,.34,.03,.12,0,.23,.01,.35,.02,.11,0,.21,0,.29,0,.32,0,.64-.02,.98-.06,.33-.04,.65-.12,.96-.24,.31-.12,.6-.28,.88-.48,.27-.21,.51-.47,.72-.8,.21-.32,.37-.72,.49-1.18,.12-.46,.18-1,.18-1.63,0-.69-.08-1.31-.25-1.85-.17-.54-.42-1-.74-1.37-.32-.37-.73-.65-1.2-.85s-1.03-.29-1.65-.29c-.12,0-.26,0-.42,0-.15,0-.31,.01-.46,.02-.15,0-.29,.02-.43,.03-.13,0-.24,.02-.33,.02Zm-7.88,8.76c.5,0,.96-.09,1.38-.27,.41-.18,.77-.44,1.08-.79,.3-.34,.54-.77,.7-1.26,.17-.5,.25-1.06,.25-1.69,0-.7-.08-1.35-.24-1.94-.16-.6-.4-1.11-.72-1.55-.32-.44-.71-.78-1.19-1.03-.47-.25-1.03-.37-1.65-.37-.5,0-.96,.09-1.38,.27-.42,.18-.77,.44-1.08,.78-.3,.34-.54,.76-.7,1.25-.17,.49-.25,1.06-.25,1.69,0,.69,.08,1.34,.24,1.94,.16,.6,.4,1.12,.71,1.56,.32,.44,.71,.78,1.19,1.04,.48,.25,1.03,.38,1.66,.38Zm-.39-9.51c.76,0,1.45,.13,2.1,.37,.64,.25,1.19,.59,1.66,1.04,.47,.45,.83,.98,1.1,1.61,.26,.63,.39,1.32,.39,2.07,0,.43-.05,.85-.15,1.27-.1,.42-.25,.81-.44,1.18-.19,.37-.43,.72-.71,1.03-.28,.32-.6,.59-.96,.82-.36,.23-.76,.41-1.19,.54-.43,.13-.9,.19-1.41,.19-.76,0-1.45-.12-2.1-.36-.64-.24-1.19-.58-1.66-1.03-.47-.44-.83-.98-1.09-1.6-.26-.62-.39-1.32-.39-2.08,0-.43,.05-.85,.15-1.27,.1-.42,.25-.81,.44-1.19,.19-.38,.43-.72,.71-1.04,.28-.32,.6-.59,.96-.82,.36-.23,.76-.41,1.2-.54,.44-.13,.91-.19,1.41-.19Zm-11.57,.16c.09,0,.19,.02,.29,.03,.09,0,.18,.02,.29,.02,.1,0,.22,0,.33,0,.18,0,.41-.02,.72-.06,.3-.04,.68-.06,1.15-.06,.44,0,.84,.06,1.21,.19,.37,.13,.69,.31,.96,.56,.27,.24,.48,.54,.64,.89,.15,.35,.23,.75,.23,1.2,0,.6-.12,1.12-.36,1.56-.24,.44-.56,.8-.96,1.07-.4,.27-.87,.46-1.39,.55-.53,.1-1.08,.1-1.65,.02v1.13c0,.38,0,.72,.02,1.01,.01,.29,.03,.53,.04,.74,.02,.21,.04,.38,.06,.52,.03,.14,.05,.26,.08,.35v.03h-1.63v-.03c.03-.1,.05-.21,.08-.35,.02-.14,.05-.32,.06-.52,.02-.21,.03-.45,.04-.74,0-.29,.01-.63,.01-1.01v-4.42c0-.38,0-.72-.01-1.01,0-.29-.02-.54-.04-.75-.02-.21-.04-.39-.06-.53-.03-.14-.05-.26-.08-.35v-.03Zm1.43,5.43c.45,.08,.85,.09,1.22,.02,.37-.06,.69-.21,.95-.42,.26-.22,.47-.51,.62-.87,.15-.37,.22-.82,.22-1.35,0-.37-.04-.7-.12-1-.08-.3-.19-.56-.34-.77-.15-.21-.34-.37-.57-.49-.23-.12-.5-.17-.81-.17-.19,0-.36,0-.51,.02-.14,.02-.27,.03-.37,.05-.12,.02-.22,.05-.29,.07v4.9Zm-13.59,3.91c.5,0,.96-.09,1.38-.27,.42-.18,.77-.44,1.08-.79,.3-.34,.54-.77,.7-1.26,.17-.5,.25-1.06,.25-1.69,0-.7-.08-1.35-.24-1.94-.16-.6-.4-1.11-.72-1.55-.32-.44-.71-.78-1.19-1.03-.47-.25-1.03-.37-1.65-.37-.5,0-.96,.09-1.38,.27-.42,.18-.77,.44-1.08,.78-.3,.34-.54,.76-.7,1.25-.17,.49-.25,1.06-.25,1.69,0,.69,.08,1.34,.24,1.94,.16,.6,.4,1.12,.71,1.56,.32,.44,.71,.78,1.19,1.04,.48,.25,1.03,.38,1.66,.38Zm-.39-9.51c.76,0,1.45,.13,2.1,.37,.64,.25,1.19,.59,1.66,1.04,.47,.45,.83,.98,1.1,1.61,.26,.63,.39,1.32,.39,2.07,0,.43-.05,.85-.15,1.27-.1,.42-.25,.81-.44,1.18-.19,.37-.43,.72-.71,1.03-.28,.32-.6,.59-.96,.82-.36,.23-.76,.41-1.19,.54-.43,.13-.9,.19-1.41,.19-.76,0-1.45-.12-2.1-.36-.64-.24-1.19-.58-1.66-1.03-.47-.44-.83-.98-1.09-1.6-.26-.62-.39-1.32-.39-2.08,0-.43,.05-.85,.15-1.27,.1-.42,.25-.81,.44-1.19,.19-.38,.43-.72,.71-1.04,.28-.32,.6-.59,.96-.82,.36-.23,.76-.41,1.2-.54,.44-.13,.91-.19,1.41-.19Zm-12.2,1.45l2.72,6.6,2.64-6.48c.1-.27,.18-.49,.23-.68,.05-.19,.07-.34,.07-.48,0-.04,0-.08,0-.13,0-.04-.01-.08-.02-.1v-.03h1.35v.03c-.09,.1-.19,.26-.3,.48-.1,.22-.23,.49-.37,.81l-3.63,8.64h-.51l-2.64-6.42-2.41,6.42h-.51l-3.33-8.31c-.08-.19-.16-.38-.25-.56-.08-.18-.16-.35-.24-.49-.07-.15-.14-.27-.2-.37-.06-.1-.1-.16-.13-.2v-.03h1.88v.03c0,.05-.01,.09-.01,.12v.09c0,.16,.02,.32,.05,.49,.03,.17,.1,.38,.2,.63l2.56,6.45,2.44-6.5,.43-.03Zm-12.11-.69c-.53,0-1.02,.02-1.45,.07-.43,.05-.8,.1-1.11,.15-.36,.07-.69,.14-.97,.23l.2-1.1c.05,0,.14,0,.24,.01,.11,0,.23,0,.36,.01,.13,0,.27,0,.42,.01,.15,0,.29,0,.42,0,.13,0,.25,0,.35,0,.1,0,.18,0,.22,0h3.88s.12,0,.22,0c.1,0,.22,0,.35,0,.13,0,.27,0,.42,0,.15,0,.29,0,.42-.01,.13,0,.26,0,.36-.01,.11,0,.19,0,.24-.01l.2,1.1c-.29-.08-.62-.16-.98-.23-.31-.05-.68-.1-1.11-.15-.43-.05-.91-.07-1.45-.07v6.49c0,.38,0,.72,.02,1.01,.01,.29,.03,.53,.04,.74,.01,.21,.03,.38,.06,.52,.03,.14,.05,.26,.08,.35v.03h-1.63v-.03c.03-.1,.05-.21,.08-.35,.02-.14,.04-.32,.06-.52,.02-.21,.03-.45,.04-.74,0-.29,.01-.63,.01-1.01v-6.49Zm-10.45,8.55h2.91c.53,0,1.02-.02,1.47-.07,.45-.05,.84-.1,1.18-.16,.39-.06,.74-.14,1.07-.22l-.33,1.1c-.05,0-.14,0-.24-.01-.11,0-.23,0-.36-.01-.13,0-.27,0-.42-.01-.15,0-.29,0-.42,0-.13,0-.25,0-.35,0-.1,0-.18,0-.22,0h-6.14v-.17l6.62-8.98h-2.56c-.53,0-1.03,.02-1.48,.07-.45,.05-.84,.1-1.18,.15-.39,.07-.74,.14-1.06,.23l.47-1.1c.05,0,.14,0,.25,.01,.11,0,.23,0,.37,.01,.13,0,.27,0,.42,.01,.15,0,.28,0,.42,0,.13,0,.25,0,.35,0,.1,0,.18,0,.22,0h5.65v.18l-6.63,8.96Zm-10.98-9.17c.1,0,.2,0,.29,.01,.08,0,.16,0,.24,0,.08,0,.15,0,.2,0,.09,0,.23,0,.43-.01,.2,0,.43-.02,.69-.03,.26,0,.53-.02,.81-.03,.28,0,.54-.01,.78-.01,.66,0,1.28,.08,1.88,.24,.59,.16,1.11,.43,1.56,.8,.45,.37,.81,.86,1.07,1.46,.26,.6,.39,1.34,.39,2.22,0,.63-.07,1.19-.21,1.7-.14,.5-.33,.95-.58,1.33-.25,.39-.55,.71-.89,.99-.35,.27-.73,.5-1.15,.67-.42,.18-.87,.31-1.34,.39-.48,.08-.97,.12-1.48,.12-.18,0-.4,0-.66-.02-.26-.01-.51-.03-.77-.04-.26-.01-.5-.03-.73-.04-.23-.01-.41-.02-.53-.02v-.03c.03-.1,.05-.21,.08-.35,.02-.14,.05-.32,.06-.52,.02-.21,.03-.45,.04-.74,0-.29,.01-.63,.01-1.01v-4.42c0-.38,0-.72-.01-1.02,0-.29-.02-.54-.04-.75-.02-.21-.04-.39-.06-.53-.03-.14-.05-.26-.08-.36v-.03Zm1.49,.61c0,.51-.02,1-.03,1.47,0,.2,0,.41-.01,.63,0,.21,0,.42,0,.63,0,.21,0,.4,0,.59,0,.19,0,.35,0,.5,0,.3,0,.67,0,1.1,0,.43,0,.87,.02,1.32,0,.45,.02,.89,.03,1.31,.01,.42,.03,.76,.05,1.04,.06,0,.15,.02,.26,.03,.11,.01,.22,.02,.34,.03,.12,0,.23,.01,.35,.02,.11,0,.21,0,.29,0,.32,0,.64-.02,.98-.06,.33-.04,.65-.12,.96-.24,.31-.12,.6-.28,.88-.48,.27-.21,.51-.47,.72-.8,.21-.32,.37-.72,.49-1.18,.12-.46,.18-1,.18-1.63,0-.69-.08-1.31-.25-1.85-.17-.54-.42-1-.74-1.37-.32-.37-.73-.65-1.2-.85-.48-.19-1.03-.29-1.65-.29-.12,0-.26,0-.42,0-.15,0-.31,.01-.46,.02-.15,0-.29,.02-.43,.03-.13,0-.24,.02-.33,.02Zm-8.59,5.36c.26,0,.53,0,.81,0,.28,0,.55,0,.81,0,.26,0,.52,0,.76,0,.25,0,.47,0,.67,0l-1.91-4.32-1.88,4.34h.74Zm4.4,3.8v-.03s.02-.06,.02-.1c0-.04,0-.09,0-.12,0-.14-.02-.3-.06-.47-.04-.17-.11-.38-.22-.64l-.82-1.85c-.25,0-.59-.01-1.01-.01h-2.4c-.33,0-.63,0-.9,.01l-.78,1.8c-.07,.17-.14,.35-.22,.55-.08,.2-.11,.4-.11,.61,0,.06,0,.11,.01,.15,0,.04,.02,.06,.03,.08v.03h-1.39v-.03c.08-.09,.19-.24,.31-.46,.12-.22,.26-.5,.4-.83l3.89-8.64h.54l3.69,8.3c.09,.19,.18,.39,.27,.57,.09,.18,.18,.35,.26,.49,.08,.14,.15,.27,.22,.37,.06,.1,.11,.16,.13,.19v.03h-1.86Zm-13.53-4.72c.45,.08,.85,.09,1.22,.03,.37-.06,.69-.19,.95-.39,.26-.2,.47-.47,.62-.81,.15-.34,.22-.76,.22-1.25,0-.34-.04-.65-.12-.93-.08-.28-.19-.51-.34-.7-.15-.19-.34-.34-.57-.45-.23-.11-.5-.16-.81-.16-.19,0-.36,0-.51,.02-.14,.02-.27,.03-.37,.05-.12,.02-.22,.05-.29,.07v4.5Zm0,2.06c0,.38,0,.72,.02,1.01,.01,.29,.03,.53,.04,.74,.02,.21,.04,.38,.06,.52,.03,.14,.05,.26,.08,.35v.03h-1.63v-.03c.03-.1,.05-.21,.08-.35,.02-.14,.05-.32,.06-.52,.02-.21,.03-.45,.04-.74,0-.29,.01-.63,.01-1.01v-4.42c0-.38,0-.72-.01-1.01,0-.29-.02-.54-.04-.75-.02-.21-.04-.39-.06-.53-.03-.14-.05-.26-.08-.35v-.03c.09,0,.19,.02,.29,.03,.09,0,.18,.02,.29,.02,.1,0,.22,0,.33,0,.18,0,.42-.02,.72-.06,.3-.04,.68-.06,1.15-.06,.44,0,.84,.06,1.21,.18,.37,.12,.69,.29,.96,.51,.27,.23,.48,.51,.64,.83,.15,.33,.23,.7,.23,1.12,0,.33-.04,.63-.13,.91-.08,.28-.2,.53-.35,.76-.15,.23-.33,.43-.55,.6-.21,.18-.45,.32-.71,.44l2.38,3.35c.12,.17,.23,.31,.33,.43,.1,.12,.2,.23,.29,.31,.09,.09,.18,.16,.27,.21,.09,.06,.17,.1,.26,.14v.03h-1.96c-.01-.09-.06-.2-.13-.34-.07-.14-.16-.29-.26-.42l-2.41-3.39c-.22,.02-.45,.03-.69,.03s-.48-.02-.72-.06v1.53Zm-7.82,2.26c.5,0,.96-.09,1.38-.27,.42-.18,.77-.44,1.08-.79,.3-.34,.54-.77,.7-1.26,.17-.5,.25-1.06,.25-1.69,0-.7-.08-1.35-.24-1.94-.16-.6-.4-1.11-.72-1.55-.32-.44-.71-.78-1.19-1.03-.47-.25-1.03-.37-1.65-.37-.5,0-.96,.09-1.38,.27-.42,.18-.77,.44-1.08,.78-.3,.34-.54,.76-.7,1.25-.17,.49-.25,1.06-.25,1.69,0,.69,.08,1.34,.24,1.94,.16,.6,.4,1.12,.71,1.56,.32,.44,.71,.78,1.19,1.04,.48,.25,1.03,.38,1.66,.38Zm-.39-9.51c.76,0,1.45,.13,2.1,.37,.64,.25,1.19,.59,1.66,1.04,.47,.45,.83,.98,1.1,1.61,.26,.63,.39,1.32,.39,2.07,0,.43-.05,.85-.15,1.27-.1,.42-.25,.81-.44,1.18-.19,.37-.43,.72-.71,1.03-.28,.32-.6,.59-.96,.82-.36,.23-.76,.41-1.19,.54-.43,.13-.9,.19-1.41,.19-.76,0-1.45-.12-2.1-.36-.64-.24-1.19-.58-1.66-1.03-.47-.44-.83-.98-1.09-1.6-.26-.62-.39-1.32-.39-2.08,0-.43,.05-.85,.15-1.27,.1-.42,.25-.81,.44-1.19,.19-.38,.43-.72,.71-1.04,.28-.32,.6-.59,.96-.82,.36-.23,.76-.41,1.2-.54,.44-.13,.91-.19,1.41-.19Zm-14.38,.14c.1,0,.2,0,.29,.01,.08,0,.16,0,.24,0,.08,0,.15,0,.2,0,.09,0,.23,0,.43-.01,.2,0,.43-.02,.69-.03,.26,0,.53-.02,.81-.03,.28,0,.54-.01,.78-.01,.66,0,1.28,.08,1.88,.24,.59,.16,1.11,.43,1.56,.8,.45,.37,.81,.86,1.07,1.46,.26,.6,.39,1.34,.39,2.22,0,.63-.07,1.19-.21,1.7-.14,.5-.33,.95-.58,1.33-.25,.39-.55,.71-.89,.99-.35,.27-.73,.5-1.15,.67-.42,.18-.87,.31-1.34,.39-.48,.08-.97,.12-1.48,.12-.18,0-.4,0-.66-.02-.26-.01-.51-.03-.77-.04-.26-.01-.5-.03-.73-.04-.23-.01-.41-.02-.53-.02v-.03c.03-.1,.05-.21,.08-.35,.02-.14,.05-.32,.06-.52,.02-.21,.03-.45,.04-.74,0-.29,.01-.63,.01-1.01v-4.42c0-.38,0-.72-.01-1.02,0-.29-.02-.54-.04-.75-.02-.21-.04-.39-.06-.53-.03-.14-.05-.26-.08-.36v-.03Zm1.49,.61c0,.51-.02,1-.03,1.47,0,.2,0,.41-.01,.63,0,.21,0,.42,0,.63,0,.21,0,.4,0,.59,0,.19,0,.35,0,.5,0,.3,0,.67,0,1.1,0,.43,0,.87,.02,1.32,0,.45,.02,.89,.03,1.31,.01,.42,.03,.76,.05,1.04,.06,0,.15,.02,.26,.03,.11,.01,.22,.02,.34,.03,.12,0,.23,.01,.35,.02,.11,0,.21,0,.29,0,.32,0,.64-.02,.98-.06,.33-.04,.65-.12,.96-.24,.31-.12,.6-.28,.88-.48,.27-.21,.51-.47,.72-.8,.21-.32,.37-.72,.49-1.18,.12-.46,.18-1,.18-1.63,0-.69-.08-1.31-.25-1.85-.17-.54-.42-1-.74-1.37-.32-.37-.73-.65-1.2-.85-.48-.19-1.03-.29-1.65-.29-.12,0-.26,0-.42,0-.15,0-.31,.01-.46,.02-.15,0-.29,.02-.43,.03-.13,0-.24,.02-.33,.02Z"/>
  <path class="cls-2" d="M289.11,78.46c-.34,.11-.67,.23-1.02,.36-.15,.06-.3,.11-.47,.18-.16,.06-.33,.13-.5,.2-.17,.07-.34,.15-.51,.22-.17,.08-.33,.15-.49,.24l-.15-.25c.29-.19,.59-.41,.88-.64,.29-.23,.56-.45,.8-.65,.28-.23,.55-.47,.81-.71l.63,1.06Zm1.33,3.51l-.06,.03c-.35-.33-.78-.59-1.27-.78-.5-.19-1.04-.29-1.64-.29s-1.09,.09-1.57,.27c-.48,.18-.88,.44-1.22,.78-.34,.34-.61,.76-.8,1.25-.19,.49-.29,1.06-.29,1.69,0,.69,.09,1.34,.27,1.94,.18,.6,.45,1.12,.81,1.56,.36,.44,.8,.78,1.34,1.04,.54,.25,1.16,.38,1.88,.38,.26,0,.51-.03,.77-.08,.26-.05,.51-.13,.74-.24,.24-.11,.46-.24,.67-.39,.21-.15,.4-.32,.57-.52l.07,.05-.54,1.39c-.34,.13-.71,.23-1.13,.3-.41,.07-.82,.11-1.24,.11-.84,0-1.6-.12-2.3-.36-.7-.24-1.29-.58-1.8-1.03-.5-.44-.89-.98-1.17-1.6-.28-.62-.42-1.32-.42-2.08,0-.43,.06-.85,.17-1.27,.11-.42,.27-.81,.48-1.19,.21-.38,.48-.72,.79-1.04,.31-.32,.67-.59,1.07-.82,.4-.23,.84-.41,1.32-.54,.48-.13,1-.19,1.57-.19,.87,0,1.69,.13,2.43,.4l.46,1.26Zm-10.44-3.51c-.34,.11-.68,.23-1.02,.36-.15,.06-.3,.11-.47,.18-.16,.06-.33,.13-.5,.2-.17,.07-.34,.15-.51,.22-.17,.08-.33,.15-.48,.24l-.15-.25c.29-.19,.59-.41,.88-.64,.29-.23,.56-.45,.8-.65,.28-.23,.55-.47,.81-.71l.63,1.06Zm.29,3.57h-.15c-.03-.1-.09-.22-.17-.35-.08-.13-.18-.25-.31-.37-.13-.12-.29-.21-.47-.29-.18-.08-.4-.12-.65-.12-.22,0-.42,.03-.59,.1-.17,.07-.32,.16-.43,.29-.12,.12-.2,.27-.26,.44-.06,.17-.09,.35-.09,.56,0,.33,.09,.64,.28,.93,.18,.3,.41,.59,.69,.88,.28,.29,.58,.58,.9,.87,.32,.29,.62,.59,.9,.9,.28,.31,.51,.64,.69,.98,.18,.34,.28,.71,.28,1.1,0,.29-.05,.59-.15,.89-.1,.3-.26,.56-.47,.8-.21,.24-.49,.43-.82,.58-.34,.15-.74,.22-1.2,.22-.26,0-.5-.02-.74-.07-.23-.05-.45-.11-.64-.18-.2-.07-.37-.15-.53-.23-.16-.08-.28-.16-.38-.23l.16-1.5h.17c.05,.21,.13,.42,.24,.61,.11,.19,.25,.36,.42,.51,.16,.15,.35,.26,.57,.35,.21,.09,.45,.13,.7,.13,.23,0,.44-.03,.62-.1,.18-.07,.34-.17,.47-.29,.13-.13,.23-.27,.3-.45,.07-.17,.1-.36,.1-.56,0-.29-.05-.55-.16-.79-.1-.24-.24-.47-.41-.69-.17-.22-.36-.43-.58-.63-.21-.2-.44-.41-.66-.61-.23-.21-.45-.42-.66-.64-.22-.22-.41-.45-.58-.7-.17-.25-.31-.51-.41-.8-.1-.28-.16-.59-.16-.93s.07-.68,.21-.97c.14-.29,.32-.53,.55-.74,.23-.2,.49-.36,.78-.47,.29-.11,.59-.16,.9-.16,.23,0,.44,.02,.63,.05,.19,.04,.36,.08,.51,.13,.15,.05,.29,.1,.4,.15,.11,.05,.21,.09,.28,.12l-.05,1.27Zm-10.45,7.79c.5,0,.96-.09,1.38-.27,.42-.18,.77-.44,1.08-.79,.3-.34,.54-.77,.7-1.26,.17-.5,.25-1.06,.25-1.69,0-.7-.08-1.35-.24-1.94-.16-.6-.4-1.11-.72-1.55-.32-.44-.71-.78-1.19-1.03-.47-.25-1.03-.37-1.65-.37-.5,0-.96,.09-1.38,.27-.42,.18-.77,.44-1.08,.78-.3,.34-.54,.76-.7,1.25-.17,.49-.25,1.06-.25,1.69,0,.69,.08,1.34,.24,1.94,.16,.6,.4,1.12,.71,1.56,.32,.44,.71,.78,1.19,1.04,.48,.25,1.03,.38,1.66,.38Zm-.39-9.51c.76,0,1.45,.13,2.1,.37,.64,.25,1.19,.59,1.66,1.04,.47,.45,.83,.98,1.1,1.61,.26,.63,.39,1.32,.39,2.07,0,.43-.05,.85-.15,1.27-.1,.42-.25,.81-.44,1.18-.19,.37-.43,.72-.71,1.03-.28,.32-.6,.59-.96,.82-.36,.23-.76,.41-1.19,.54-.43,.13-.9,.19-1.41,.19-.76,0-1.45-.12-2.1-.36-.64-.24-1.19-.58-1.66-1.03-.47-.44-.83-.98-1.09-1.6-.26-.62-.39-1.32-.39-2.08,0-.43,.05-.85,.15-1.27,.1-.42,.25-.81,.44-1.19,.19-.38,.43-.72,.71-1.04,.28-.32,.6-.59,.96-.82,.36-.23,.76-.41,1.2-.54,.44-.13,.91-.19,1.41-.19Zm-12.2,1.45l2.72,6.6,2.64-6.48c.1-.27,.18-.49,.23-.68,.05-.19,.07-.34,.07-.48,0-.04,0-.08,0-.13,0-.04-.01-.08-.02-.1v-.03h1.35v.03c-.09,.1-.19,.26-.3,.48-.1,.22-.23,.49-.37,.81l-3.63,8.64h-.51l-2.64-6.42-2.41,6.42h-.51l-3.33-8.31c-.08-.19-.16-.38-.25-.56-.08-.18-.16-.35-.24-.49-.07-.15-.14-.27-.2-.37-.06-.1-.1-.16-.13-.2v-.03h1.88v.03c0,.05-.01,.09-.01,.12v.09c0,.16,.02,.32,.05,.49,.03,.17,.1,.38,.2,.63l2.56,6.45,2.44-6.5,.43-.03Zm-12.75,8.06c.5,0,.96-.09,1.38-.27,.42-.18,.77-.44,1.08-.79,.3-.34,.54-.77,.7-1.26,.17-.5,.25-1.06,.25-1.69,0-.7-.08-1.35-.24-1.94-.16-.6-.4-1.11-.72-1.55-.32-.44-.71-.78-1.19-1.03-.47-.25-1.03-.37-1.65-.37-.5,0-.96,.09-1.38,.27-.42,.18-.77,.44-1.08,.78-.3,.34-.54,.76-.7,1.25-.17,.49-.25,1.06-.25,1.69,0,.69,.08,1.34,.24,1.94,.16,.6,.4,1.12,.71,1.56,.32,.44,.71,.78,1.19,1.04,.48,.25,1.03,.38,1.66,.38Zm-.39-9.51c.76,0,1.45,.13,2.1,.37,.64,.25,1.19,.59,1.66,1.04,.47,.45,.83,.98,1.1,1.61,.26,.63,.39,1.32,.39,2.07,0,.43-.05,.85-.15,1.27-.1,.42-.25,.81-.44,1.18-.19,.37-.43,.72-.71,1.03-.28,.32-.6,.59-.96,.82-.36,.23-.76,.41-1.19,.54-.43,.13-.9,.19-1.41,.19-.76,0-1.45-.12-2.1-.36-.64-.24-1.19-.58-1.66-1.03-.47-.44-.83-.98-1.09-1.6-.26-.62-.39-1.32-.39-2.08,0-.43,.05-.85,.15-1.27,.1-.42,.25-.81,.44-1.19,.19-.38,.43-.72,.71-1.04,.28-.32,.6-.59,.96-.82,.36-.23,.76-.41,1.2-.54,.44-.13,.91-.19,1.41-.19Zm-6.2,8.77s0,.1-.02,.16c-.01,.06-.04,.1-.08,.14-.2,.15-.42,.29-.66,.42-.24,.13-.5,.24-.77,.34-.28,.1-.57,.17-.89,.22-.32,.05-.66,.08-1.03,.08-.83,0-1.58-.12-2.26-.36-.68-.24-1.26-.58-1.75-1.03-.49-.44-.87-.98-1.13-1.6-.27-.62-.4-1.32-.4-2.08,0-.43,.06-.85,.17-1.27,.11-.42,.27-.81,.48-1.19,.21-.38,.48-.72,.79-1.04,.31-.32,.67-.59,1.07-.82,.4-.23,.84-.41,1.32-.54,.48-.13,1-.19,1.57-.19,.22,0,.44,.01,.67,.03,.23,.02,.45,.05,.67,.09,.22,.04,.44,.08,.64,.14,.21,.05,.4,.12,.59,.18l.46,1.26-.05,.03c-.18-.16-.38-.31-.61-.44-.23-.13-.48-.25-.74-.35-.26-.1-.54-.18-.83-.23-.29-.06-.58-.09-.87-.09-.57,0-1.09,.09-1.57,.27-.48,.18-.88,.44-1.22,.78-.34,.34-.61,.76-.8,1.25-.19,.49-.29,1.06-.29,1.69,0,.69,.09,1.34,.27,1.93,.18,.59,.45,1.11,.81,1.54,.36,.44,.8,.77,1.34,1.02,.54,.25,1.16,.37,1.88,.37,.32,0,.6-.03,.85-.08,.25-.05,.46-.11,.63-.19,.17-.07,.3-.16,.39-.25,.09-.09,.13-.17,.13-.24v-.26c0-.32,0-.59-.01-.82,0-.23-.02-.43-.04-.6-.02-.17-.04-.32-.06-.44-.02-.12-.05-.23-.08-.34v-.03h1.63v.03c-.03,.09-.05,.21-.08,.34-.02,.13-.05,.28-.06,.46-.02,.18-.03,.38-.04,.62,0,.24-.01,.51-.01,.83v.28Zm-10.25,3.49c-.11,.07-.23,.14-.36,.21-.13,.07-.27,.13-.42,.19-.15,.05-.31,.1-.47,.13-.16,.03-.34,.05-.51,.05s-.34-.02-.51-.06c-.17-.03-.32-.1-.45-.18-.13-.08-.24-.19-.32-.33-.08-.13-.12-.29-.12-.48,0-.2,.05-.39,.16-.57,.11-.18,.27-.34,.47-.49,.2-.16,.43-.3,.71-.43,.27-.13,.57-.25,.89-.36-.12,0-.24,0-.38-.01-.13,0-.26,0-.38,0-.12,0-.22,0-.32,0-.09,0-.16,0-.2,0h-2.94v-.03c.03-.1,.05-.21,.08-.35,.02-.14,.05-.32,.06-.52,.02-.21,.03-.45,.04-.74,0-.29,.01-.63,.01-1.01v-4.42c0-.38,0-.72-.01-1.01,0-.29-.02-.54-.04-.75-.02-.21-.04-.39-.06-.53-.03-.14-.05-.26-.08-.35v-.03c.57,0,1.13,0,1.69,0,.56,0,1.07-.01,1.54-.02,.47,0,.87-.02,1.19-.03,.33-.01,.55-.03,.67-.05l-.33,.9c-.15-.04-.32-.08-.52-.11-.17-.03-.38-.05-.63-.08-.25-.03-.53-.04-.85-.04-.11,0-.24,0-.39,0-.15,0-.3,.02-.44,.03-.16,0-.33,.02-.5,.03v3.71c.47,0,.89-.02,1.26-.04,.38-.02,.7-.04,.96-.07,.31-.03,.58-.06,.82-.1l-.21,.99c-.31-.04-.63-.08-.96-.12-.28-.03-.59-.06-.92-.09-.33-.02-.65-.04-.95-.04v4.26c.54,0,1.03-.02,1.48-.07,.45-.05,.84-.1,1.18-.16,.39-.06,.74-.14,1.07-.22l-.2,1.1c-.26,.04-.51,.12-.75,.24-.24,.12-.46,.26-.64,.42-.19,.16-.34,.33-.45,.51-.11,.18-.17,.35-.17,.51,0,.25,.07,.43,.22,.57,.15,.13,.37,.2,.67,.2,.12,0,.23-.01,.35-.03,.12-.02,.23-.05,.33-.09,.1-.03,.2-.07,.29-.11,.09-.04,.17-.08,.24-.12l.11,.21Zm-8.78-2.38c.03-.1,.05-.21,.08-.35,.02-.14,.04-.32,.06-.52,.02-.21,.03-.45,.04-.74,0-.29,.01-.63,.01-1.01v-4.42c0-.38,0-.72-.01-1.01,0-.29-.02-.54-.04-.75-.02-.21-.04-.39-.06-.53-.02-.14-.05-.26-.08-.35v-.03h1.63v.03c-.03,.1-.05,.21-.08,.35-.03,.14-.05,.32-.06,.53-.01,.21-.03,.46-.04,.75-.01,.29-.02,.62-.02,1.01v4.42c0,.38,0,.72,.02,1.01,.01,.29,.03,.53,.04,.74,.02,.21,.04,.38,.06,.52,.03,.14,.05,.26,.08,.35v.03h-1.63v-.03Zm-2.33-8.17h-.15c-.03-.1-.09-.22-.17-.35-.08-.13-.18-.25-.31-.37-.13-.12-.29-.21-.47-.29-.18-.08-.4-.12-.65-.12-.22,0-.42,.03-.59,.1-.17,.07-.32,.16-.43,.29-.12,.12-.2,.27-.26,.44-.06,.17-.09,.35-.09,.56,0,.33,.09,.64,.28,.93,.18,.3,.41,.59,.69,.88,.28,.29,.58,.58,.9,.87,.32,.29,.62,.59,.9,.9,.28,.31,.51,.64,.69,.98,.18,.34,.28,.71,.28,1.1,0,.29-.05,.59-.15,.89-.1,.3-.26,.56-.47,.8-.21,.24-.49,.43-.82,.58-.34,.15-.74,.22-1.2,.22-.26,0-.5-.02-.74-.07-.23-.05-.45-.11-.64-.18-.2-.07-.37-.15-.53-.23-.16-.08-.28-.16-.38-.23l.16-1.5h.17c.05,.21,.13,.42,.24,.61,.11,.19,.25,.36,.42,.51,.16,.15,.35,.26,.57,.35,.21,.09,.45,.13,.7,.13,.23,0,.44-.03,.62-.1,.18-.07,.34-.17,.47-.29,.13-.13,.23-.27,.3-.45,.07-.17,.1-.36,.1-.56,0-.29-.05-.55-.16-.79-.1-.24-.24-.47-.41-.69-.17-.22-.36-.43-.58-.63-.21-.2-.44-.41-.66-.61-.23-.21-.45-.42-.66-.64-.22-.22-.41-.45-.58-.7-.17-.25-.31-.51-.41-.8-.1-.28-.16-.59-.16-.93s.07-.68,.21-.97c.14-.29,.32-.53,.55-.74,.23-.2,.49-.36,.78-.47,.29-.11,.59-.16,.9-.16,.23,0,.44,.02,.63,.05,.19,.04,.36,.08,.51,.13,.15,.05,.29,.1,.4,.15,.11,.05,.21,.09,.28,.12l-.05,1.27Zm-13.05,8.17c.03-.1,.05-.21,.08-.35,.02-.14,.05-.32,.06-.52,.02-.21,.03-.45,.04-.74,0-.29,.01-.63,.01-1.01v-4.42c0-.38,0-.72-.01-1.01,0-.29-.02-.54-.04-.75-.02-.21-.04-.39-.06-.53-.03-.14-.05-.26-.08-.35v-.03h1.63v.03c-.03,.1-.05,.21-.08,.35-.02,.14-.04,.32-.06,.53-.02,.21-.03,.46-.04,.75,0,.29-.02,.62-.02,1.01v1.52l3.97-3.24c.44-.36,.67-.67,.67-.94h1.91v.03c-.27,.07-.54,.19-.81,.36-.27,.18-.56,.4-.87,.66l-3.51,2.94,4.22,4.63c.18,.18,.33,.33,.45,.45,.13,.12,.23,.22,.33,.3,.1,.08,.18,.15,.26,.2,.08,.05,.16,.1,.25,.15v.03h-1.99s-.05-.09-.09-.16c-.04-.06-.09-.13-.15-.2-.06-.07-.12-.14-.18-.21-.07-.07-.13-.14-.19-.2l-4.26-4.68v2.79c0,.38,0,.72,.02,1.01,.01,.29,.03,.53,.04,.74,.02,.21,.04,.38,.06,.52,.03,.14,.05,.26,.08,.35v.03h-1.63v-.03Zm-12.35-5.18c0-.25,.05-.47,.14-.69,.1-.21,.22-.4,.38-.56,.16-.16,.35-.28,.56-.37,.21-.09,.44-.14,.68-.14s.46,.05,.67,.14c.21,.1,.4,.22,.56,.38,.16,.16,.29,.34,.38,.56,.09,.21,.14,.44,.14,.67s-.05,.46-.14,.67c-.09,.21-.21,.4-.37,.56-.16,.16-.35,.29-.56,.39-.22,.09-.45,.14-.7,.14s-.47-.05-.69-.14c-.22-.1-.4-.22-.56-.38-.16-.16-.28-.35-.37-.56-.09-.21-.14-.44-.14-.68Zm-13.7-4.54c.57,0,1.13,0,1.69,0,.56,0,1.07-.01,1.54-.02,.47,0,.87-.02,1.19-.03,.33-.01,.55-.03,.67-.05l-.33,.9c-.15-.04-.32-.08-.52-.11-.17-.03-.38-.05-.63-.08-.25-.03-.53-.04-.85-.04-.11,0-.24,0-.39,0-.15,0-.3,.02-.44,.03-.16,0-.33,.02-.5,.03v3.71c.47,0,.89-.02,1.26-.04,.38-.02,.7-.04,.96-.07,.31-.03,.58-.06,.82-.1l-.21,.99c-.31-.04-.63-.08-.96-.12-.28-.03-.59-.06-.92-.09-.33-.02-.65-.04-.95-.04v4.26c.54,0,1.03-.02,1.48-.07,.45-.05,.84-.1,1.18-.16,.39-.06,.74-.14,1.07-.22l-.2,1.1c-.06,0-.14,0-.25-.01-.11,0-.23,0-.36-.01-.13,0-.27,0-.42-.01-.15,0-.29,0-.42,0-.13,0-.25,0-.35,0-.1,0-.18,0-.22,0h-2.94v-.03c.03-.1,.05-.21,.08-.35,.02-.14,.05-.32,.06-.52,.02-.21,.03-.45,.04-.74,0-.29,.01-.63,.01-1.01v-4.42c0-.38,0-.72-.01-1.01,0-.29-.02-.54-.04-.75-.02-.21-.04-.39-.06-.53-.03-.14-.05-.26-.08-.35v-.03Zm-7.75,1.29l2.72,6.6,2.64-6.48c.1-.27,.18-.49,.23-.68,.05-.19,.07-.34,.07-.48,0-.04,0-.08,0-.13,0-.04-.01-.08-.02-.1v-.03h1.35v.03c-.09,.1-.19,.26-.3,.48-.1,.22-.23,.49-.37,.81l-3.63,8.64h-.51l-2.64-6.42-2.41,6.42h-.51l-3.33-8.31c-.08-.19-.16-.38-.25-.56-.08-.18-.16-.35-.24-.49-.07-.15-.14-.27-.2-.37-.06-.1-.1-.16-.13-.2v-.03h1.88v.03c0,.05-.01,.09-.01,.12v.09c0,.16,.02,.32,.05,.49,.03,.17,.1,.38,.2,.63l2.56,6.45,2.44-6.5,.43-.03Zm-12.75,8.06c.5,0,.96-.09,1.38-.27,.42-.18,.77-.44,1.08-.79,.3-.34,.54-.77,.7-1.26,.17-.5,.25-1.06,.25-1.69,0-.7-.08-1.35-.24-1.94-.16-.6-.4-1.11-.72-1.55-.32-.44-.71-.78-1.19-1.03-.47-.25-1.03-.37-1.65-.37-.5,0-.96,.09-1.38,.27-.42,.18-.77,.44-1.08,.78-.3,.34-.54,.76-.7,1.25-.17,.49-.25,1.06-.25,1.69,0,.69,.08,1.34,.24,1.94,.16,.6,.4,1.12,.71,1.56,.32,.44,.71,.78,1.19,1.04,.48,.25,1.03,.38,1.66,.38Zm-.39-9.51c.76,0,1.45,.13,2.1,.37,.64,.25,1.19,.59,1.66,1.04,.47,.45,.83,.98,1.1,1.61,.26,.63,.39,1.32,.39,2.07,0,.43-.05,.85-.15,1.27-.1,.42-.25,.81-.44,1.18-.19,.37-.43,.72-.71,1.03-.28,.32-.6,.59-.96,.82-.36,.23-.76,.41-1.19,.54-.43,.13-.9,.19-1.41,.19-.76,0-1.45-.12-2.1-.36-.64-.24-1.19-.58-1.66-1.03-.47-.44-.83-.98-1.09-1.6-.26-.62-.39-1.32-.39-2.08,0-.43,.05-.85,.15-1.27,.1-.42,.25-.81,.44-1.19,.19-.38,.43-.72,.71-1.04,.28-.32,.6-.59,.96-.82,.36-.23,.76-.41,1.2-.54,.44-.13,.91-.19,1.41-.19Zm-13.43,9.88c.03-.1,.05-.21,.08-.35,.02-.14,.05-.32,.06-.52,.02-.21,.03-.45,.04-.74,0-.29,.01-.63,.01-1.01v-4.42c0-.38,0-.72-.01-1.01,0-.29-.02-.54-.04-.75-.02-.21-.04-.39-.06-.53-.03-.14-.05-.26-.08-.35v-.03h1.63v.03c-.03,.1-.05,.21-.08,.35-.02,.14-.04,.32-.06,.53-.02,.21-.03,.46-.04,.75,0,.29-.02,.62-.02,1.01v1.52l3.97-3.24c.44-.36,.67-.67,.67-.94h1.91v.03c-.27,.07-.54,.19-.81,.36-.27,.18-.56,.4-.87,.66l-3.51,2.94,4.22,4.63c.18,.18,.33,.33,.45,.45,.13,.12,.23,.22,.33,.3,.1,.08,.18,.15,.26,.2,.08,.05,.16,.1,.25,.15v.03h-1.99s-.05-.09-.09-.16c-.04-.06-.09-.13-.15-.2-.06-.07-.12-.14-.18-.21-.07-.07-.13-.14-.19-.2l-4.26-4.68v2.79c0,.38,0,.72,.02,1.01,.01,.29,.03,.53,.04,.74,.02,.21,.04,.38,.06,.52,.03,.14,.05,.26,.08,.35v.03h-1.63v-.03Z"/>
  <path class="cls-2" d="M282.76,54.07c0,1.06,.01,1.99,.04,2.78,.02,.79,.05,1.47,.1,2.04,.04,.57,.09,1.06,.16,1.44,.07,.39,.14,.71,.22,.96v.07h-4.11v-.07c.08-.25,.16-.56,.22-.96,.06-.39,.11-.87,.16-1.44,.04-.57,.07-1.25,.1-2.04,.02-.79,.04-1.72,.04-2.78v-1.22l-6.38-8.41c-.42-.57-.83-1.02-1.22-1.37-.39-.34-.68-.57-.88-.66v-.07h5.03c0,.21,.07,.54,.23,.98,.15,.44,.47,.99,.94,1.62l4.5,5.95,4.61-6.2c.33-.45,.58-.89,.75-1.33,.17-.44,.26-.77,.26-1.02h3.24v.07c-.3,.2-.6,.45-.91,.76-.31,.31-.68,.74-1.09,1.31l-5.98,8.11v1.49Zm-23.61,5.95h5.6c.97,0,1.86-.05,2.68-.16,.81-.11,1.52-.22,2.12-.36,.7-.15,1.33-.33,1.9-.53l-.83,2.53c-.15-.01-.41-.02-.77-.04-.36-.02-.75-.04-1.15-.05-.4-.02-.79-.03-1.14-.04-.35,0-.6,0-.74,0h-12.04v-.48l12.27-17.21h-4.29c-1.03,0-1.96,.05-2.82,.17-.85,.11-1.59,.24-2.23,.36-.73,.16-1.4,.33-2.02,.51l1.19-2.53c.15,.02,.41,.04,.79,.05,.37,.01,.76,.02,1.17,.04,.41,.02,.79,.03,1.14,.04,.34,0,.59,.01,.71,.01h10.82v.31l-12.34,17.37Zm-14.14-6.75c-.24,.04-.47,.05-.7,.06-.23,0-.47,.01-.7,.01-.19,0-.39,0-.62-.02-.22-.01-.45-.03-.69-.05v.87c0,1.05,.01,1.96,.03,2.75,.02,.79,.06,1.46,.1,2.03,.04,.56,.09,1.04,.15,1.43,.06,.38,.13,.7,.22,.94v.07h-4.09v-.07c.09-.25,.16-.56,.22-.96,.07-.39,.12-.87,.16-1.44,.04-.57,.07-1.25,.1-2.04,.02-.79,.04-1.72,.04-2.78v-4.46c0-1.06-.01-1.99-.04-2.77-.02-.79-.05-1.46-.1-2.04-.04-.57-.1-1.05-.16-1.44-.06-.39-.13-.71-.22-.95v-.07c.19,0,.39,.02,.6,.03,.18,.01,.38,.02,.6,.03,.22,0,.44,0,.66,0,.38,0,.94-.04,1.69-.1,.74-.07,1.61-.11,2.62-.11s1.94,.13,2.77,.37c.83,.25,1.55,.6,2.14,1.06,.6,.47,1.06,1.02,1.38,1.69,.33,.66,.48,1.4,.48,2.21,0,.63-.08,1.22-.27,1.75-.18,.52-.42,1-.74,1.41-.31,.42-.7,.79-1.13,1.11-.43,.32-.92,.6-1.45,.83l3.7,5.22c.32,.42,.64,.83,.97,1.22,.32,.39,.63,.74,.92,1.05,.3,.31,.57,.56,.83,.77,.26,.21,.48,.35,.66,.42v.07h-4.64c0-.11-.07-.29-.22-.56-.15-.27-.31-.54-.51-.83-.19-.29-.39-.57-.58-.84-.19-.27-.34-.47-.44-.6l-3.74-5.26Zm-2.71-1.15c.24,.04,.47,.06,.71,.08,.24,.02,.48,.02,.7,.02,1.47,0,2.59-.39,3.35-1.18,.76-.79,1.14-1.98,1.14-3.56,0-1.3-.3-2.33-.91-3.08-.6-.76-1.5-1.13-2.68-1.13-.38,0-.71,.01-1,.04-.29,.03-.54,.06-.74,.1-.22,.05-.42,.1-.58,.15v8.57Zm-18.76-9.79c1.15,0,2.34,0,3.56-.01,1.21,0,2.34-.02,3.38-.04,1.04-.02,1.93-.04,2.68-.06,.75-.02,1.25-.06,1.48-.11l-.7,1.92c-.31-.08-.68-.16-1.08-.23-.36-.06-.79-.11-1.29-.17-.5-.05-1.08-.08-1.74-.08-.24,0-.51,0-.82,.02-.31,.02-.6,.04-.88,.06-.33,.02-.67,.05-1.01,.07v6.99c.95-.01,1.81-.04,2.58-.07,.77-.04,1.43-.08,1.96-.15,.64-.05,1.2-.11,1.69-.19l-.42,2.11c-.65-.08-1.31-.16-1.97-.22-.56-.05-1.19-.11-1.87-.15-.69-.04-1.34-.06-1.96-.06v8.04c1.09,0,2.1-.04,3.03-.13,.92-.08,1.72-.18,2.41-.29,.8-.13,1.53-.28,2.18-.44l-.4,2.32c-.18-.01-.47-.03-.86-.05-.4-.02-.81-.03-1.24-.04-.43,0-.83-.01-1.21-.02-.37,0-.64,0-.78,0h-6.71v-.07c.08-.25,.16-.56,.22-.96,.07-.39,.12-.87,.16-1.44,.04-.57,.07-1.25,.1-2.04,.02-.79,.04-1.72,.04-2.78v-4.46c0-1.06-.01-1.99-.04-2.77-.02-.79-.05-1.46-.1-2.04-.04-.57-.1-1.05-.16-1.44-.06-.39-.13-.71-.22-.95v-.07Zm-5.06,19.28h-.69l-14.08-13.85v6.3c0,1.06,0,1.99,.02,2.78,.01,.79,.03,1.47,.06,2.04,.03,.57,.07,1.06,.13,1.44,.05,.39,.12,.71,.2,.96v.07h-2.65v-.07c.08-.25,.15-.56,.21-.96,.06-.39,.11-.87,.14-1.44,.04-.57,.06-1.25,.07-2.04,.01-.79,.02-1.72,.02-2.78v-4.46c0-1.06,0-1.99-.02-2.77-.01-.79-.04-1.46-.07-2.04-.03-.57-.08-1.05-.14-1.44-.06-.39-.13-.71-.21-.95v-.07h1.09l14.1,13.91v-6.64c0-1.06,0-1.99-.01-2.77-.01-.79-.04-1.46-.07-2.04-.03-.57-.07-1.05-.11-1.44-.05-.39-.11-.71-.19-.95v-.07h2.64v.07c-.08,.25-.15,.57-.21,.95-.05,.39-.1,.88-.13,1.44-.04,.57-.06,1.25-.07,2.04-.01,.79-.02,1.71-.02,2.77v12Zm-29.59-17.98c-1.08,0-2.05,.05-2.93,.14-.88,.09-1.64,.19-2.28,.3-.73,.13-1.39,.27-1.98,.42l.36-2.29c.18,.02,.47,.04,.86,.05,.41,.01,.82,.02,1.27,.02,.44,0,.86,.01,1.26,.02,.39,0,.66,.01,.82,.01h8.38c.14,0,.41,0,.79-.01,.38,0,.79-.01,1.23-.02,.44,0,.85-.01,1.26-.02,.4-.01,.69-.03,.86-.05l.36,2.29c-.57-.15-1.22-.3-1.95-.42-.63-.11-1.38-.21-2.26-.3-.88-.1-1.87-.14-2.97-.14v10.43c0,1.06,.01,1.99,.04,2.78,.02,.79,.05,1.47,.1,2.04,.04,.57,.09,1.06,.15,1.44,.06,.39,.13,.71,.21,.96v.07h-4.09v-.07c.08-.25,.16-.56,.22-.96,.05-.39,.11-.87,.16-1.44,.05-.57,.09-1.25,.11-2.04,.02-.79,.04-1.72,.04-2.78v-10.43Zm-16.66,9.63c-.24,.04-.47,.05-.7,.06-.23,0-.47,.01-.7,.01-.19,0-.39,0-.62-.02-.22-.01-.45-.03-.69-.05v.87c0,1.05,.01,1.96,.03,2.75,.02,.79,.06,1.46,.1,2.03,.04,.56,.09,1.04,.15,1.43,.06,.38,.13,.7,.22,.94v.07h-4.09v-.07c.08-.25,.16-.56,.22-.96,.07-.39,.12-.87,.16-1.44,.04-.57,.07-1.25,.1-2.04,.02-.79,.04-1.72,.04-2.78v-4.46c0-1.06-.01-1.99-.04-2.77-.02-.79-.05-1.46-.1-2.04-.04-.57-.1-1.05-.16-1.44-.06-.39-.13-.71-.22-.95v-.07c.19,0,.39,.02,.6,.03,.18,.01,.38,.02,.6,.03,.22,0,.44,0,.66,0,.38,0,.94-.04,1.69-.1,.74-.07,1.61-.11,2.62-.11s1.94,.13,2.77,.37c.83,.25,1.55,.6,2.14,1.06,.6,.47,1.06,1.02,1.38,1.69,.33,.66,.48,1.4,.48,2.21,0,.63-.09,1.22-.27,1.75-.18,.52-.42,1-.74,1.41-.31,.42-.7,.79-1.13,1.11-.43,.32-.92,.6-1.45,.83l3.7,5.22c.32,.42,.64,.83,.97,1.22,.32,.39,.63,.74,.92,1.05,.3,.31,.57,.56,.83,.77,.26,.21,.48,.35,.66,.42v.07h-4.64c0-.11-.07-.29-.22-.56-.15-.27-.31-.54-.51-.83-.19-.29-.39-.57-.58-.84-.19-.27-.34-.47-.44-.6l-3.74-5.26Zm-2.71-1.15c.24,.04,.47,.06,.71,.08,.24,.02,.48,.02,.7,.02,1.47,0,2.59-.39,3.35-1.18,.76-.79,1.14-1.98,1.14-3.56,0-1.3-.3-2.33-.91-3.08-.6-.76-1.5-1.13-2.68-1.13-.38,0-.71,.01-1,.04-.29,.03-.54,.06-.74,.1-.22,.05-.42,.1-.58,.15v8.57Zm-20.49,1.87h1.08c.5,0,1.02,0,1.58,0,.56,0,1.12-.01,1.69-.01s1.11,0,1.64,0c.53,0,1.01-.01,1.43-.01l-3.66-7.83-3.77,7.86Zm8.08,1.38h-4.52c-.6,0-1.17,0-1.72,0-.54,0-1.04,.01-1.49,.02-.45,0-.8,.01-1.05,.01l-.66,1.38c-.28,.57-.53,1.06-.72,1.48-.2,.42-.36,.79-.5,1.11-.13,.32-.22,.59-.28,.82-.05,.23-.08,.45-.08,.65,0,.13,0,.23,.02,.29,.01,.07,.02,.11,.05,.15v.07h-3.11v-.07c.08-.08,.21-.26,.39-.54,.18-.28,.38-.62,.61-1.02,.23-.4,.48-.85,.74-1.36,.27-.51,.53-1.03,.79-1.58l7.22-14.91h1.33l7.08,14.91c.27,.57,.54,1.11,.82,1.63,.28,.52,.53,.98,.77,1.39,.24,.4,.45,.74,.62,1.01,.17,.27,.3,.42,.35,.47v.07h-4.53c.02-.1,.04-.18,.04-.25v-.26c0-.26-.05-.57-.17-.94-.11-.37-.25-.74-.41-1.12-.16-.39-.33-.76-.5-1.11-.17-.36-.31-.65-.42-.89l-.69-1.41Zm-23.96-1.42c0,1.06,.01,1.99,.03,2.8,.02,.8,.06,1.5,.1,2.09,.04,.58,.09,1.08,.15,1.47,.06,.4,.13,.73,.22,.97v.07h-4.09v-.07c.08-.25,.16-.56,.22-.96,.07-.39,.12-.87,.16-1.44,.04-.57,.07-1.25,.1-2.04,.02-.79,.04-1.72,.04-2.78v-4.46c0-1.06-.01-1.99-.04-2.77-.02-.79-.05-1.46-.1-2.04-.04-.57-.1-1.05-.16-1.44-.06-.39-.13-.71-.22-.95v-.07c.26,0,.52,.02,.78,.03,.22,.01,.46,.02,.71,.03,.25,0,.5,0,.72,0,.38,0,.94-.04,1.67-.1,.74-.07,1.61-.11,2.61-.11,.92,0,1.78,.12,2.57,.36,.79,.24,1.47,.6,2.04,1.07,.57,.48,1.02,1.05,1.35,1.73,.33,.68,.48,1.46,.48,2.35,0,1.04-.2,1.96-.6,2.76-.41,.8-.95,1.46-1.64,2-.69,.54-1.51,.94-2.44,1.21-.93,.27-1.92,.4-2.97,.4-.56,0-1.12-.04-1.7-.11Zm0-1.22c.24,.04,.47,.07,.7,.1,.23,.03,.46,.05,.68,.05,.67,0,1.29-.1,1.85-.31,.56-.21,1.04-.51,1.44-.92,.39-.42,.7-.94,.92-1.58,.22-.64,.33-1.38,.33-2.23,0-.69-.08-1.31-.23-1.86-.15-.56-.38-1.03-.68-1.43-.3-.39-.68-.7-1.12-.92-.45-.22-.97-.33-1.56-.33-.38,0-.71,.01-1,.04-.29,.03-.54,.06-.74,.1-.22,.05-.42,.1-.58,.15v9.15Zm-34.34-12.08c0,.68,.08,1.39,.23,2.12,.15,.73,.37,1.48,.63,2.26,.58-.37,1.12-.74,1.63-1.14,.5-.39,.94-.81,1.31-1.26,.37-.45,.66-.94,.88-1.46,.22-.52,.32-1.09,.32-1.72,0-.36-.04-.69-.13-1-.08-.31-.22-.59-.4-.83-.18-.24-.41-.43-.68-.57-.27-.13-.6-.21-.96-.21-.94,0-1.65,.34-2.12,1.01-.47,.68-.7,1.61-.7,2.8Zm1.33,19.69c.97,0,1.89-.13,2.77-.39,.88-.26,1.69-.64,2.42-1.14-.8-.85-1.58-1.73-2.34-2.63-.76-.9-1.46-1.83-2.12-2.76-.66-.94-1.28-1.89-1.83-2.83-.56-.95-1.05-1.89-1.46-2.8-.56,.37-1.07,.77-1.55,1.18-.48,.41-.89,.87-1.25,1.37-.36,.5-.63,1.03-.84,1.62-.21,.58-.31,1.22-.31,1.92,0,.92,.16,1.78,.48,2.56,.33,.79,.78,1.48,1.35,2.06,.58,.58,1.27,1.03,2.07,1.35,.79,.33,1.66,.49,2.61,.49Zm11.07-8.5c-.44,2.35-1.37,4.33-2.8,5.95,1.2,1.2,2.44,2.31,3.7,3.34,1.26,1.02,2.51,1.91,3.73,2.67,1.22,.76,2.4,1.35,3.53,1.77,1.14,.43,2.18,.64,3.12,.64,.38,0,.76-.04,1.13-.11v.41c-.14,.05-.33,.14-.56,.25-.23,.1-.51,.21-.85,.3-.34,.1-.74,.18-1.19,.25-.45,.07-.97,.11-1.55,.11-.92,0-1.92-.19-2.99-.57-1.07-.39-2.18-.92-3.32-1.6-1.14-.68-2.3-1.49-3.48-2.42-1.17-.93-2.32-1.95-3.45-3.06-1.03,.7-2.16,1.23-3.39,1.61-1.23,.38-2.58,.57-4.04,.57-1.32,0-2.51-.17-3.57-.5-1.06-.33-1.95-.8-2.68-1.42-.73-.61-1.3-1.35-1.69-2.23-.39-.87-.59-1.86-.59-2.94s.19-1.96,.59-2.77c.39-.8,.89-1.54,1.53-2.19,.63-.65,1.35-1.24,2.17-1.77,.82-.53,1.64-1.04,2.5-1.53-.34-.89-.61-1.75-.8-2.59-.19-.84-.28-1.64-.28-2.41,0-.93,.15-1.77,.45-2.52,.3-.75,.71-1.38,1.23-1.9,.51-.52,1.13-.92,1.83-1.2,.7-.28,1.46-.43,2.25-.43,.59,0,1.15,.08,1.67,.25,.52,.17,.97,.41,1.35,.74,.38,.33,.69,.73,.91,1.22,.22,.48,.33,1.05,.33,1.68,0,.8-.16,1.52-.5,2.16-.34,.63-.78,1.22-1.33,1.75-.55,.53-1.18,1.03-1.89,1.49-.71,.46-1.44,.91-2.19,1.34,.37,.89,.83,1.78,1.35,2.7,.53,.91,1.1,1.81,1.73,2.71,.62,.91,1.29,1.8,2.02,2.67,.72,.88,1.46,1.72,2.23,2.55,.56-.77,1.01-1.64,1.34-2.62,.33-.98,.49-2.06,.49-3.23,0-.99-.06-1.82-.17-2.48-.11-.67-.23-1.24-.35-1.71v-.07h3.19v.07c-.08,.28-.15,.6-.19,.95-.04,.34-.08,.73-.13,1.15-.05,.42-.1,.88-.16,1.38-.06,.5-.15,1.04-.25,1.62Z"/>
  <path class="cls-2" d="M178.32,14.67l11.27,15.09h-7.02l-9.78-13.18h-7.44v13.18h-6.17V0h6.17V13.4h7.02L182.15,0h6.8l-10.63,14.67ZM134.74,3.19V13.4h15.52v3.19h-15.52v13.18h-6.17V0h26.79V3.19h-20.62Zm-35.71,0V26.57h7.87c1.45,0,2.8-.22,4.06-.66,1.26-.44,2.36-1.13,3.29-2.08,.94-.95,1.68-2.16,2.23-3.63,.55-1.47,.83-3.25,.83-5.32s-.28-3.84-.83-5.31c-.55-1.47-1.3-2.69-2.23-3.63-.94-.95-2.03-1.64-3.29-2.08-1.26-.44-2.62-.66-4.06-.66h-7.87ZM106.89,0c2.55,0,4.87,.32,6.95,.96,2.08,.64,3.87,1.58,5.36,2.83,1.49,1.25,2.64,2.8,3.47,4.66,.82,1.86,1.23,4,1.23,6.44s-.41,4.58-1.23,6.44c-.82,1.86-1.98,3.41-3.47,4.66-1.49,1.25-3.27,2.19-5.36,2.83-2.08,.64-4.4,.96-6.95,.96h-14.03V0h14.03Z"/>
  <polygon class="cls-1" points="36.15 0 72.3 61.41 47.26 61.41 36.15 43.43 25.22 61.41 0 61.41 36.15 0"/>
  <polygon class="cls-1" points="45.23 0 80.84 0 63 30.2 45.23 0"/>
</svg>