<?xml version="1.0" encoding="utf-8"?>
<!-- Generator: Adobe Illustrator 27.0.1, SVG Export Plug-In . SVG Version: 6.00 Build 0)  -->
<svg version="1.1" id="Layer_1" xmlns="http://www.w3.org/2000/svg" xmlns:xlink="http://www.w3.org/1999/xlink" x="0px" y="0px"
	 viewBox="0 0 595.3 841.9" style="enable-background:new 0 0 595.3 841.9;" xml:space="preserve">
<style type="text/css">
	.st0{fill:#FFFFFD;}
	.st1{fill:#DC4E41;}
	.st2{fill:#D99C5C;}
</style>
<path class="st0" d="M595.3,420.9c0,164.4-133.3,297.6-297.6,297.6S0,585.3,0,420.9s133.3-297.6,297.6-297.6
	S595.3,256.6,595.3,420.9z"/>
<path class="st1" d="M104.2,434.2c-0.1,52.4,33.2,99,82.7,116.1c47.2,16.7,99.7,2.7,132.3-35.3c20.3-28.4,29.2-63.4,24.9-98.1
	c-39.1,0-78.3,0-117.4,0c0,14,0,27.8,0,41.8c23.4,0,46.9,0,70.2,0.9c-5.2,20.9-20,38.2-39.9,46.4c-39.6,16.2-84.9-2.7-101.1-42.4
	c-16.2-39.6,2.7-84.9,42.4-101.1c2.1-0.9,4.3-1.7,6.5-2.3c25.2-6.2,51.8-0.7,72.5,14.9c10.9-10.1,21.1-21.1,31.1-32.1
	c-51.5-44.6-129.4-39.1-174,12.4C115.3,377.3,104.6,405.2,104.2,434.2z"/>
<path class="st1" d="M419.7,381.5c0,11.8,0,23.4,0,35.1h-35.1v35h35.1c0,11.6,0,23.4,0,35.1h35c0-11.8,0-23.4,0-35.1h35v-34.8h-35
	c0-11.6,0-23.4,0-35L419.7,381.5z"/>
<path class="st2" d="M104.2,434.2c0.4-68.1,55.9-123.1,124.1-122.7c29.6,0.2,58.1,11,80.4,30.4c-10,11-20.2,21.9-31.1,32.1
	c-20.7-15.7-47.4-21.1-72.6-14.9c-40.9,12.6-63.9,56-51.2,96.9s56,63.9,96.9,51.2c2.2-0.7,4.4-1.5,6.5-2.3
	c19.9-8.3,34.7-25.5,39.9-46.4c-23.5,0-46.9,0-70.2-0.9c0-14,0-27.8,0-41.8c39.1,0,78.3,0,117.4,0c4.4,34.7-4.5,69.8-24.9,98.2
	c-32.6,38-85.1,52-132.3,35.3C137.8,532.5,104.5,486.3,104.2,434.2z"/>
<path class="st2" d="M419.7,381.5h34.8c0,11.8,0,23.4,0,35.1h35v35h-34.7c0,11.8,0,23.4,0,35.1h-35.1c0-11.8,0-23.4,0-35h-35.1v-35
	h35.1c0-11.6,0-23.4,0-35.1V381.5z"/>
</svg>
