<?xml version="1.0" encoding="utf-8"?>
<!-- Generator: Adobe Illustrator 27.0.1, SVG Export Plug-In . SVG Version: 6.00 Build 0)  -->
<svg version="1.1" id="Layer_1" xmlns="http://www.w3.org/2000/svg" xmlns:xlink="http://www.w3.org/1999/xlink" x="0px" y="0px"
	 viewBox="0 0 595.3 841.9" style="enable-background:new 0 0 595.3 841.9;" xml:space="preserve">
<style type="text/css">
	.st0{fill:#D99C5C;}
	.st1{fill:#FFFFFF;}
</style>
<circle class="st0" cx="297.6" cy="420.9" r="297.6"/>
<path class="st1" d="M382.9,274.8H212.4c-16.8,0.1-30.3,13.6-30.4,30.4v231.4c0.1,16.8,13.6,30.3,30.4,30.4h93.5
	c8.1,0.1,15.9-3,21.6-8.8l77-77c5.6-5.8,8.8-13.5,8.8-21.6V305.3C413.2,288.6,399.6,275,382.9,274.8L382.9,274.8z M396,472.5l-77,77
	c-0.9,1-1.9,1.8-3,2.5v-64.1c0-10.1,8.2-18.2,18.3-18.3h64.2c-0.7,1.1-1.5,2.2-2.5,3L396,472.5z M401.1,457.3h-67
	c-16.8,0.1-30.3,13.6-30.4,30.4v67h-91.4c-10.1,0-18.2-8.2-18.3-18.3V305.3c0-10.1,8.2-18.2,18.3-18.3h170.5
	c10.1,0,18.2,8.2,18.3,18.3V457.3z"/>
<path class="st1" d="M233.7,347.9h106.5c3.4,0.4,6.4-2,6.8-5.4c0.4-3.4-2-6.4-5.4-6.8c-0.5-0.1-0.9-0.1-1.4,0H233.7
	c-3.4,0.4-5.8,3.4-5.4,6.8C228.7,345.4,230.9,347.6,233.7,347.9z"/>
<path class="st1" d="M233.7,384.4h42.6c3.4,0.4,6.4-2,6.8-5.4s-2-6.4-5.4-6.8c-0.5-0.1-0.9-0.1-1.4,0h-42.6
	c-3.4,0.4-5.8,3.4-5.4,6.8C228.7,381.9,230.9,384.1,233.7,384.4z"/>
<path class="st1" d="M303.7,372.2c-3.4,0.4-5.8,3.4-5.4,6.8c0.3,2.8,2.6,5.1,5.4,5.4h9.1c3.4-0.4,5.8-3.4,5.4-6.8
	c-0.3-2.8-2.6-5.1-5.4-5.4L303.7,372.2z"/>
<path class="st1" d="M258.1,445.3h-24.4c-3.4,0.4-5.8,3.4-5.4,6.8c0.3,2.8,2.6,5.1,5.4,5.4h24.4c3.4-0.4,5.8-3.4,5.4-6.8
	C263.2,447.9,260.9,445.6,258.1,445.3z"/>
<path class="st1" d="M349.2,409H233.7c-3.4,0.4-5.8,3.4-5.4,6.8c0.3,2.8,2.6,5.1,5.4,5.4h115.5c3.4-0.4,5.8-3.4,5.4-6.8
	C354.3,411.6,352.1,409.4,349.2,409z"/>
</svg>
