<?xml version="1.0" encoding="utf-8"?>
<!-- Generator: Adobe Illustrator 27.0.1, SVG Export Plug-In . SVG Version: 6.00 Build 0)  -->
<svg version="1.1" id="Layer_1" xmlns="http://www.w3.org/2000/svg" xmlns:xlink="http://www.w3.org/1999/xlink" x="0px" y="0px"
	 viewBox="0 0 595.3 841.9" style="enable-background:new 0 0 595.3 841.9;" xml:space="preserve">
<style type="text/css">
	.st0{fill:#D99C5C;}
	.st1{fill:#FFFFFF;}
</style>
<circle class="st0" cx="297.6" cy="420.9" r="297.6"/>
<path class="st1" d="M420.7,381.3c0-67.9-55.1-123-123-123s-123,55.1-123,123l0,0c-27.3,1.7-48.7,24.2-49,51.5v6.1
	c0,28.8,23.3,52.2,52.1,52.2c0.1,0,0.1,0,0.2,0h2.8l21.8,34.7c15,24.4,41.7,39.1,70.3,39h4.3c3.4,13.2,16.8,21.1,30,17.7
	c13.2-3.4,21.1-16.8,17.7-30c-3.4-13.2-16.8-21.1-30-17.7c-8.7,2.2-15.4,9-17.7,17.7h-4.3c-24.4,0.1-47.2-12.6-59.9-33.5l-17.8-27.5
	h4.3c6.8,0,12.3-5.5,12.3-12.3v-86.1c0-6.8-5.5-12.3-12.3-12.3h-12.3c0-61.1,49.5-110.6,110.6-110.6s110.6,49.5,110.6,110.6h-12.3
	c-6.8,0-12.3,5.5-12.3,12.3v86.1c0,6.8,5.5,12.3,12.3,12.3h21.5c28.8,0,52.2-23.3,52.2-52.1c0-0.1,0-0.1,0-0.2v-6.5
	C469.4,405.5,448,383,420.7,381.3z M300.7,546.9c6.8,0,12.3,5.5,12.3,12.3c0,6.8-5.5,12.3-12.3,12.3s-12.3-5.5-12.3-12.3l0,0
	C288.4,552.4,293.9,546.9,300.7,546.9z M199.4,393.2v86.1h-21.5c-21.9,0-39.7-17.8-39.7-39.7v-6.7c0-21.9,17.8-39.7,39.7-39.7H199.4
	z M457.3,439.2c0,21.9-17.8,39.7-39.7,39.7h-21.7v-85.7h21.5c21.9,0,39.7,17.8,39.7,39.7L457.3,439.2z"/>
<path class="st1" d="M348.6,304.5l-2.5-1.5l-2.5-1.5c-2.8-1.6-6.3-0.7-7.9,2.1c0,0,0,0,0,0c-1.5,2.8-0.5,6.3,2.1,7.9l2.5,1.5
	c0.9,0.6,1.8,1.1,2.8,1.5c0.9,0.6,2,0.9,3.1,1c2.2,0.1,4.2-1.1,5.2-3.1c1.3-2.9,0.3-6.3-2.5-7.9L348.6,304.5z"/>
<path class="st1" d="M297.6,288.9c-25.9,0-50.6,11.4-67.5,31c-2.1,2.6-1.8,6.4,0.6,8.6c1.1,0.9,2.5,1.5,4,1.5
	c1.8,0.1,3.5-0.7,4.6-2.1c14.7-16.9,35.9-26.7,58.3-26.7c5.6,0,11.1,0.6,16.6,1.8c3.3,0.6,6.5-1.4,7.4-4.6c0.6-3.3-1.4-6.5-4.6-7.4
	C310.7,289.5,304.2,288.7,297.6,288.9L297.6,288.9z"/>
</svg>
