<?xml version="1.0" encoding="utf-8"?>
<!-- Generator: Adobe Illustrator 27.0.1, SVG Export Plug-In . SVG Version: 6.00 Build 0)  -->
<svg version="1.1" id="Layer_1" xmlns="http://www.w3.org/2000/svg" xmlns:xlink="http://www.w3.org/1999/xlink" x="0px" y="0px"
	 viewBox="0 0 595.3 841.9" style="enable-background:new 0 0 595.3 841.9;" xml:space="preserve">
<style type="text/css">
	.st0{fill:#D99C5C;}
	.st1{clip-path:url(#SVGID_00000106128508358586229070000010768405614089081996_);}
	.st2{fill:#FFFFFF;}
</style>
<circle class="st0" cx="297.6" cy="420.9" r="297.6"/>
<g>
	<defs>
		<rect id="SVGID_1_" x="143.7" y="266.5" width="307.9" height="308.8"/>
	</defs>
	<clipPath id="SVGID_00000132062678684344070400000012162110183219436685_">
		<use xlink:href="#SVGID_1_"  style="overflow:visible;"/>
	</clipPath>
	<g style="clip-path:url(#SVGID_00000132062678684344070400000012162110183219436685_);">
		<path class="st2" d="M418.8,331.3h-57.5c14.6-15.3,14-39.6-1.4-54.2c-15.3-14.6-39.6-14-54.2,1.4l0,0
			c-6.4,6.8-11.4,14.7-14.7,23.3c-3.3-8.7-8.3-16.6-14.7-23.3c-7.2-7.3-17-11.3-27.2-11.2c-21.1-0.1-38.3,17-38.4,38.1
			c0,9.6,3.5,18.8,9.9,25.9h-44.9c-17.5,0-31.7,14.2-31.7,31.7v25.6c0.1,8.1,5.2,15.4,12.8,18.3v135.5c0,18.3,18.6,31.7,35.2,31.7
			h214.3c17.5,0,31.7-14.2,31.7-31.7V407.1c7.7-2.8,12.8-10.1,12.8-18.3v-25.6c0-17.5-14.2-31.7-31.7-31.7L418.8,331.3z
			 M314.9,287.4c10-10,26.2-10,36.2,0c10,10,10,26.2,0,36.2c-2.7,2.5-5.6,4.8-8.7,6.7c-0.6,0.3-1.1,0.8-1.6,1.3h-43.6
			c0.6-1,0.9-2,1-3.2C299,313.3,304.9,298.9,314.9,287.4L314.9,287.4z M231.4,287.4c9.9-9.8,25.9-9.8,35.9,0
			c9.9,11.2,15.7,25.4,16.7,40.3c0,1.1,0.3,2.2,1,3.2h-43.3c-0.7-0.3-1.4-0.7-1.9-1.3c-3-1.6-5.7-3.8-7.9-6.4
			c-9.9-10-9.9-26.2,0-36.2L231.4,287.4z M284.5,562h-92.8c-10.2,0-22.4-8.7-22.4-19.2V408h115.2L284.5,562z M438,388.8
			c0,3.1-2.1,5.7-5.1,6.4l0,0h-1c-3.6,0-6.4,2.9-6.4,6.4c0,0,0,0,0,0v141.1c0,10.6-8.6,19.2-19.2,19.2H297.2V408h64
			c3.5-0.4,6.1-3.6,5.7-7.1c-0.3-3-2.7-5.3-5.7-5.7h-64v-28.8c0.4-3.5-2.1-6.7-5.7-7.1c-3.5-0.4-6.7,2.1-7.1,5.7
			c-0.1,0.5-0.1,1,0,1.4v28.8H162.9c-3.6,0-6.4-2.9-6.4-6.4l0,0v-25.6c0-10.6,8.6-19.2,19.2-19.2h243.2c10.6,0,19.2,8.6,19.2,19.2
			L438,388.8z"/>
	</g>
</g>
<path class="st2" d="M399.7,395.2h-9.6c-3.5,0.4-6.1,3.6-5.7,7.1c0.3,3,2.7,5.3,5.7,5.7h9.6c3.5-0.4,6.1-3.6,5.7-7.1
	C405.1,397.9,402.7,395.6,399.7,395.2z"/>
</svg>
