<?xml version="1.0" encoding="utf-8"?>
<!-- Generator: Adobe Illustrator 27.0.1, SVG Export Plug-In . SVG Version: 6.00 Build 0)  -->
<svg version="1.1" id="Layer_1" xmlns="http://www.w3.org/2000/svg" xmlns:xlink="http://www.w3.org/1999/xlink" x="0px" y="0px"
	 viewBox="0 0 595.3 841.9" style="enable-background:new 0 0 595.3 841.9;" xml:space="preserve">
<style type="text/css">
	.st0{fill:#D99C5C;}
	.st1{clip-path:url(#SVGID_00000012470403854704442130000010374785671441067426_);}
	.st2{fill:#FFFFFF;}
	.st3{font-family:'Montserrat-Bold';}
	.st4{font-size:63.4961px;}
	.st5{letter-spacing:-1;}
</style>
<circle class="st0" cx="297.6" cy="420.9" r="297.6"/>
<g>
	<defs>
		<rect id="SVGID_1_" x="108.4" y="292.6" width="378.5" height="254"/>
	</defs>
	<clipPath id="SVGID_00000135648640284354622060000007166565449510318744_">
		<use xlink:href="#SVGID_1_"  style="overflow:visible;"/>
	</clipPath>
	<g style="clip-path:url(#SVGID_00000135648640284354622060000007166565449510318744_);">
		<path class="st2" d="M310.6,492.5h-22.9c-3.7-0.4-7,2.2-7.4,5.9c-0.4,3.7,2.2,7,5.9,7.4c0.5,0.1,1,0.1,1.5,0h22.9
			c3.7,0.4,7-2.2,7.4-5.9c0.4-3.7-2.2-7-5.9-7.4C311.6,492.4,311.1,492.4,310.6,492.5L310.6,492.5z"/>
		<path class="st2" d="M486.5,499.1c0-3.7-3-6.7-6.7-6.7l0,0H457v-166c0-18.3-14.9-33.1-33.2-33.2H171.4
			c-18.3,0-33.1,14.9-33.2,33.2v166H115c-3.7,0-6.7,3-6.7,6.7l0,0v13.1c0,18.3,14.9,33.1,33.2,33.2h312.2
			c18.3-0.1,33.1-14.9,33.2-33.2L486.5,499.1z M473.6,512.2c0,11-8.9,19.9-19.9,19.9H141.6c-11,0-19.9-8.9-19.9-19.9v-6.7h133.1
			c3.7-0.4,6.3-3.7,5.9-7.4c-0.3-3.1-2.8-5.6-5.9-5.9H151.6V326.5c0-11,8.9-19.9,19.9-19.9h252.3c11,0,19.9,8.9,19.9,19.9v166h-99.6
			c-3.7,0.4-6.3,3.7-5.9,7.4c0.3,3.1,2.8,5.6,5.9,5.9h129.5V512.2z"/>
	</g>
</g>
<path class="st2" d="M430.4,469.3V329.7c0-5.4-4.3-9.8-9.7-9.8c0,0-0.1,0-0.1,0h-246c-5.4,0-9.8,4.4-9.8,9.8c0,0,0,0.1,0,0.1v139.6
	c-0.1,5.4,4.2,9.8,9.6,9.9c0.1,0,0.1,0,0.2,0h246c5.4,0.1,9.8-4.2,9.9-9.6c0-0.1,0-0.2,0-0.3H430.4z M417.2,465.9H178.1V333.2h239.1
	V465.9z"/>
<text transform="matrix(1 0 0 1 236.5234 428.8039)" class="st2 st3 st4 st5">2 </text>
<text transform="matrix(1 0 0 1 272.5586 428.8039)" class="st2 st3 st4">4h</text>
</svg>
