<?xml version="1.0" encoding="utf-8"?>
<!-- Generator: Adobe Illustrator 27.0.1, SVG Export Plug-In . SVG Version: 6.00 Build 0)  -->
<svg version="1.1" id="Layer_1" xmlns="http://www.w3.org/2000/svg" xmlns:xlink="http://www.w3.org/1999/xlink" x="0px" y="0px"
	 viewBox="0 0 595.3 841.9" style="enable-background:new 0 0 595.3 841.9;" xml:space="preserve">
<style type="text/css">
	.st0{fill:#D99C5C;}
	.st1{clip-path:url(#SVGID_00000036241263511083946280000009032666019471473570_);}
	.st2{fill:#FFFFFF;}
</style>
<circle class="st0" cx="297.6" cy="420.9" r="297.6"/>
<g>
	<defs>
		<rect id="SVGID_1_" x="154.8" y="233.2" width="285.7" height="375.7"/>
	</defs>
	<clipPath id="SVGID_00000173858751449513022760000002592897188534665394_">
		<use xlink:href="#SVGID_1_"  style="overflow:visible;"/>
	</clipPath>
	<g style="clip-path:url(#SVGID_00000173858751449513022760000002592897188534665394_);">
		<path class="st2" d="M401.6,418H381l1.9-18.3c0.5-3.5-1.9-6.7-5.3-7.2c-3.5-0.5-6.7,1.9-7.2,5.3c0,0.2-0.1,0.4-0.1,0.6L355.1,555
			c-2.1,22.7-21.2,40.1-44,40.2h-84.8c-22.9,0.2-41.9-17.4-43.7-40.2l-14.4-149.7h129.1c3.5-0.4,6-3.5,5.6-7
			c-0.3-2.9-2.7-5.3-5.6-5.6H164.3c-0.5-0.1-1.1-0.1-1.6,0c-0.7-0.2-1.5-0.2-2.2,0c-3.5,0.3-6.1,3.4-5.7,6.9c0,0,0,0,0,0.1
			l14.8,156.6c2.7,29.2,27.3,51.5,56.7,51.2h84.8c29.4,0.1,54-22.3,56.7-51.6l1.3-14.8h32.5c20.9-0.1,37.9-17,37.9-37.9v-47.6
			c-0.1-20.9-17-37.9-37.9-37.9V418z M401.6,529.1h-31.4l9.2-98.1h21.8c14,0,25.3,11.4,25.3,25.3V504l0,0c0,14-11.4,25.3-25.3,25.3
			L401.6,529.1z"/>
	</g>
</g>
<path class="st2" d="M315.9,399c0,3.5,2.8,6.3,6.3,6.3h9.5c3.5,0.4,6.6-2.1,7-5.6c0.4-3.5-2.1-6.6-5.6-7c-0.5-0.1-0.9-0.1-1.4,0
	h-9.5C318.7,392.7,315.9,395.5,315.9,399L315.9,399z"/>
<path class="st2" d="M211.8,365.8c0.7,2.8,3.2,4.7,6,4.8c0.5,0.2,1.1,0.2,1.6,0c3.4-0.9,5.4-4.4,4.5-7.8c0-0.1,0-0.1,0-0.2l-7.1-25
	c-3-10.7-1.5-22.2,4.1-31.7l2.5-4.1c4.7-7.7,7.2-16.6,7.3-25.6c0.4-3.5-2.1-6.6-5.6-7c-3.5-0.4-6.6,2.1-7,5.6
	c-0.1,0.5-0.1,0.9,0,1.4c-0.1,6.8-2,13.4-5.4,19.3l-2.5,4.1c-7.6,12.7-9.5,27.9-5.4,42.1L211.8,365.8z"/>
<path class="st2" d="M259.3,365.8c0.7,2.8,3.2,4.7,6,4.8c0.5,0.2,1.1,0.2,1.6,0c3.4-0.9,5.4-4.4,4.5-7.8c0-0.1,0-0.1,0-0.2l-7.1-25
	c-3-10.7-1.5-22.2,4.1-31.7l2.5-4.4c6.7-11.9,8.9-25.8,6-39.2l-5.7-23.1c-1.1-3.3-4.8-5.1-8.1-3.9c-2.8,1-4.6,3.8-4.2,6.8l5.7,22.8
	c2.2,10.1,0.6,20.7-4.4,29.8l-2.5,4.1c-7.6,12.7-9.5,27.9-5.4,42.1L259.3,365.8z"/>
<path class="st2" d="M306.7,365.8c0.7,2.8,3.2,4.7,6,4.8c0.5,0.2,1.1,0.2,1.6,0c3.4-0.9,5.4-4.4,4.5-7.8c0-0.1,0-0.1,0-0.2l-7-25
	c-3-10.7-1.5-22.2,4.1-31.7c1.9-2.9,1.1-6.8-1.8-8.7s-6.8-1.1-8.7,1.8c-0.1,0.2-0.2,0.4-0.3,0.6c-7.6,12.7-9.5,27.9-5.4,42.1
	L306.7,365.8z"/>
</svg>
