<?xml version="1.0" encoding="utf-8"?>
<!-- Generator: Adobe Illustrator 27.0.1, SVG Export Plug-In . SVG Version: 6.00 Build 0)  -->
<svg version="1.1" id="Layer_1" xmlns="http://www.w3.org/2000/svg" xmlns:xlink="http://www.w3.org/1999/xlink" x="0px" y="0px"
	 viewBox="0 0 595.3 841.9" style="enable-background:new 0 0 595.3 841.9;" xml:space="preserve">
<style type="text/css">
	.st0{fill:#D99C5C;}
	.st1{clip-path:url(#SVGID_00000016772635513393207140000013929983472246047145_);}
	.st2{fill:#FFFFFF;}
	.st3{fill:#FEFEFE;}
</style>
<circle class="st0" cx="297.6" cy="420.9" r="297.6"/>
<g>
	<defs>
		<rect id="SVGID_1_" x="109.8" y="250.5" width="375.7" height="340.8"/>
	</defs>
	<clipPath id="SVGID_00000106850097585117485720000007717143557498070165_">
		<use xlink:href="#SVGID_1_"  style="overflow:visible;"/>
	</clipPath>
	<g style="clip-path:url(#SVGID_00000106850097585117485720000007717143557498070165_);">
		<path class="st2" d="M478.4,526h-46.4v-46.1c0-3.4-2.8-6.2-6.2-6.2s-6.2,2.8-6.2,6.2V526H373c-3.4,0-6.2,2.8-6.2,6.2
			s2.8,6.2,6.2,6.2h46.4v46.7c0,3.4,2.8,6.2,6.2,6.2c3.4,0,6.2-2.8,6.2-6.2v-46.8h46.4c3.4,0,6.2-2.8,6.2-6.2S481.7,526,478.4,526
			L478.4,526z"/>
		<path class="st3" d="M370.6,430.5c9.1,2.6,17.6,7.1,24.8,13.3c2.6,2.1,6.5,1.7,8.6-1c2-2.5,1.7-6.2-0.7-8.3
			c-8.7-7.6-19-13-30.1-15.9l-3.7-1c-5.8-1.4-11.9,0.5-15.9,4.9c-13.7,15.9-31,16.7-49.3,16.7s-35.3-1.3-49-16.7
			c-3.9-4.5-10.1-6.4-15.9-4.9l-3.7,1c-25.7,7-45.8,26.8-53.2,52.4l-5.2,17.9h-52.4c-0.8,0-1.6-0.3-2.1-1c-0.6-0.7-0.8-1.6-0.6-2.5
			l10.2-36.3c8.7-28.8,27-38.1,59.8-45.9c0.6,0,1,0,1.6-0.6c2.1,1.5,4.7,3.1,6.8,4.4c0.8,0.5,1.8,0.7,2.8,0.6
			c2.3-0.1,4.4-1.4,5.6-3.4c1.4-3,0.3-6.6-2.5-8.3c-18.3-9.3-31.7-36.3-31.7-63.5c-0.1-24.9,20-45.2,44.9-45.2c0.1,0,0.2,0,0.3,0
			c7.3,0.1,14.5,1.8,21,5.2c-3.8,8.9-5.8,18.5-5.9,28.2c0,52.9,31.7,97.6,70,97.6s70-45.6,70-97.6c0-38.7-31.4-70.1-70.1-70.1
			c-23.3,0-45.1,11.6-58.2,31l0,0c-28.2-14.7-63-3.8-77.7,24.4c-4.3,8.2-6.5,17.4-6.5,26.7c-0.2,21.9,7.1,43.3,20.8,60.4
			c-28.2,7.1-51.7,17.7-62.5,53l-10.4,36c-2.1,8.2,2.9,16.6,11.1,18.7c1.1,0.3,2.3,0.4,3.4,0.5h48.3l-4.4,14.5
			c-1.6,5.2-0.6,10.9,2.8,15.2c3.4,4.4,8.7,7.1,14.3,7.1h131.6c3.4,0,6.2-2.8,6.2-6.2s-2.8-6.2-6.2-6.2H186c-2.8,0-5-2.3-4.9-5.1
			c0-0.5,0.1-1,0.2-1.4l13-45.2c6.3-21.4,23.3-38,44.9-43.7l3.7-1c1.3-0.2,2.6,0.3,3.4,1.3c17.1,19.5,38.1,21,58.6,21
			c20.5,0,41.5-1.6,58.6-21l0,0c0.8-0.8,2-1.1,3.1-1L370.6,430.5z M305.2,262.9c25.1,0.1,47.2,16.3,54.8,40.2
			c-11.1,2.2-22.5-2.3-29.1-11.4c-1.9-2.7-5.7-3.4-8.4-1.5c-0.1,0.1-0.2,0.1-0.2,0.2c-1.1,0.7-1.8,1.8-2.1,3.1c0,0,0,0.6-0.6,1
			c-8.7,17.6-37.8,25.1-71.4,18.6c3.8-28.6,28.1-50,57-50.2H305.2z M271.4,327.7c24.8,0,45.2-7.9,55.6-22.3
			c7.6,6.8,17.4,10.5,27.5,10.6c2.7,0,5.3-0.3,7.9-1c0.2,1.7,0.2,3.5,0,5.2c0,45.6-27,85.5-57.6,85.5c-29.4,0-55.6-36.9-57.6-80.2
			c7.9,1.4,15.8,2.2,23.8,2.1L271.4,327.7z"/>
	</g>
</g>
</svg>
