<?xml version="1.0" encoding="utf-8"?>
<!-- Generator: Adobe Illustrator 27.0.1, SVG Export Plug-In . SVG Version: 6.00 Build 0)  -->
<svg version="1.1" id="Layer_1" xmlns="http://www.w3.org/2000/svg" xmlns:xlink="http://www.w3.org/1999/xlink" x="0px" y="0px"
	 viewBox="0 0 595.3 841.9" style="enable-background:new 0 0 595.3 841.9;" xml:space="preserve">
<style type="text/css">
	.st0{fill:#D99C5C;}
	.st1{clip-path:url(#SVGID_00000029005377018976914810000010116150200612404134_);}
	.st2{fill:#FFFFFF;}
</style>
<circle class="st0" cx="297.6" cy="420.9" r="297.6"/>
<g>
	<defs>
		<rect id="SVGID_1_" x="146.4" y="291.6" width="302.6" height="258.7"/>
	</defs>
	<clipPath id="SVGID_00000162330021679143643380000010212623319880910751_">
		<use xlink:href="#SVGID_1_"  style="overflow:visible;"/>
	</clipPath>
	<g style="clip-path:url(#SVGID_00000162330021679143643380000010212623319880910751_);">
		<path class="st2" d="M333.8,378.9h8.6c3.4,0,6.1-2.7,6.1-6.1s-2.7-6.1-6.1-6.1h-8.6c-3.4,0-6.1,2.7-6.1,6.1
			S330.5,378.9,333.8,378.9z"/>
		<path class="st2" d="M447.5,528.1l-7.9-18.7c-2.5-5.5-8-9.1-14-9.2h-6.4V378.9h13.2c5.8,0.2,11-3.8,12.2-9.5
			c1.2-5.6-1.6-11.3-6.7-13.7l-127-60.2c-8.2-4-17.8-4-26,0l-128.2,60.2c-6.3,2.6-9.3,9.9-6.7,16.2c2,4.8,6.7,7.8,11.8,7.6h12.9
			v121.4h-5.5c-6.1,0.1-11.5,3.7-14,9.2l-7.9,18.3c-1.8,4.8-1.3,10.1,1.5,14.4c2.8,4.2,7.5,6.8,12.5,6.7h272.2c5,0,9.8-2.5,12.5-6.7
			C449.2,538.5,449.7,532.9,447.5,528.1z M161.8,366.4l127.5-60.2c5-2.5,10.9-2.5,15.9,0l127.5,60.5h-19.8c-3.4,0-6.1,2.7-6.1,6.1
			l0,0c0,0.6,0,1,0,1.2s0,1,0,1.2v125.4h-24.2v-85c0-13.5-10.9-24.4-24.4-24.4c-13.5,0-24.4,10.9-24.4,24.4v85.2h-12.2v-85.2
			c0-13.5-10.9-24.4-24.4-24.4c-13.5,0-24.4,10.9-24.4,24.4v85.2h-12.2v-85.2c0-13.5-10.9-24.4-24.4-24.4
			c-13.5,0-24.4,10.9-24.4,24.4v85.2h-24.4V378.9h119.5c3.4,0,6.1-2.7,6.1-6.1s-2.7-6.1-6.1-6.1L161.8,366.4z M369.9,415.3v85.5
			h-24.1v-85.2c0-6.8,5.5-12.2,12.2-12.2c6.8,0,12.2,5.5,12.2,12.2c0,0,0,0,0,0L369.9,415.3z M308.7,415.3v85.5h-24.1v-85.2
			c0-6.8,5.5-12.2,12.2-12.2c6.8,0,12.2,5.5,12.2,12.2L308.7,415.3z M247.6,415.3v85.5h-24.1v-85.2c0-6.8,5.5-12.2,12.2-12.2
			c6.7,0,12.2,5.5,12.2,12.2L247.6,415.3z M435.9,536c0,0-1.2,1.5-2.5,1.5h-272c-1.1,0.2-2.2-0.5-2.7-1.5c-0.5-0.9-0.5-2.1,0-3
			l7.9-18c0.6-1.1,1.7-1.8,3-1.8h256.4c1.3,0,2.4,0.7,3,1.8l7.9,18.3c0,1-0.4,2-1,2.8L435.9,536z"/>
	</g>
</g>
</svg>
