<?xml version="1.0" encoding="utf-8"?>
<!-- Generator: Adobe Illustrator 27.0.1, SVG Export Plug-In . SVG Version: 6.00 Build 0)  -->
<svg version="1.1" id="Layer_1" xmlns="http://www.w3.org/2000/svg" xmlns:xlink="http://www.w3.org/1999/xlink" x="0px" y="0px"
	 viewBox="0 0 595.3 841.9" style="enable-background:new 0 0 595.3 841.9;" xml:space="preserve">
<style type="text/css">
	.st0{fill:#D99C5C;}
	.st1{clip-path:url(#SVGID_00000072258373615212808220000000559382234832259210_);}
	.st2{fill:#FFFFFF;}
	.st3{clip-path:url(#SVGID_00000022530136982265220790000017946415043672488095_);}
	.st4{fill:#FEFEFE;}
</style>
<circle class="st0" cx="297.6" cy="420.9" r="297.6"/>
<g>
	<defs>
		<rect id="SVGID_1_" x="118.2" y="290.8" width="358.9" height="260.3"/>
	</defs>
	<clipPath id="SVGID_00000052061828012970972350000011191356250608995743_">
		<use xlink:href="#SVGID_1_"  style="overflow:visible;"/>
	</clipPath>
	<g style="clip-path:url(#SVGID_00000052061828012970972350000011191356250608995743_);">
		<path class="st2" d="M413.4,372.1c-2.8-1.1-5-3.4-6-6.3c-19.2-57.4-81.2-88.4-138.7-69.3c-44.8,14.9-75,56.9-74.9,104.1
			c-0.2,2.2-0.2,4.4,0,6.7c0,1.1-0.4,2.1-1,3c-0.5,0.6-1.2,1-2,1h-3.3c-38.3-1-70.2,29.3-71.2,67.7c-1,38.3,29.3,70.2,67.7,71.2
			c1.5,0,3.1,0,4.6,0h194.7c50.3,0.2,91.6-39.8,92.9-90.1c0.4-40.1-25.3-75.8-63.5-88H413.4z M383.3,536.8H189
			c-30.6,0.3-56-23.6-57.8-54.1c-0.5-15.3,5.2-30.2,15.9-41.2c10.6-11.2,25.4-17.5,40.9-17.3h2.5c4.5,0.4,8.9-1.3,12-4.7
			c3.5-3.5,5.3-8.3,5-13.3v-0.6c-0.2-1.7-0.2-3.3,0-5c0-53.2,43.1-96.4,96.4-96.4c41.3,0,78,26.3,91.3,65.5
			c2.2,7.1,7.6,12.6,14.6,14.9c32.5,10.6,54.4,41.2,53.8,75.4C462.1,503.2,426.4,537.3,383.3,536.8z"/>
	</g>
</g>
<path class="st2" d="M242.4,384c-3.6-0.6-7.1,1.7-7.9,5.3c-0.5,3.7-0.7,7.5-0.6,11.3c0.4,3.7,3.7,6.3,7.4,5.9
	c3.1-0.3,5.6-2.8,5.9-5.9c-0.1-2.9,0.1-5.8,0.6-8.7C248.3,388.3,246,384.9,242.4,384L242.4,384z"/>
<path class="st2" d="M325.4,334.6c-7.1-2.3-14.5-3.5-21.9-3.7c-20.9,0-40.8,9.4-54.1,25.6c-2.3,2.7-2,6.8,0.8,9.1
	c0.1,0.1,0.2,0.2,0.3,0.2c1.2,0.9,2.7,1.4,4.3,1.3c2-0.1,3.9-0.9,5.3-2.3c10.5-13.2,26.6-21,43.5-21c6.1,0.1,12.1,1.1,17.9,3
	c3.4,0.8,6.8-1,7.9-4.3c1-3.3-0.8-6.8-4.1-7.9c-0.1,0-0.1,0-0.2-0.1L325.4,334.6z"/>
<g>
	<defs>
		<rect id="SVGID_00000173142480998498400290000001145100018472719528_" x="247.3" y="407.6" width="134.9" height="98.8"/>
	</defs>
	<clipPath id="SVGID_00000152978601921575588700000004532554419610237592_">
		<use xlink:href="#SVGID_00000173142480998498400290000001145100018472719528_"  style="overflow:visible;"/>
	</clipPath>
	<g style="clip-path:url(#SVGID_00000152978601921575588700000004532554419610237592_);">
		<path class="st4" d="M314.8,431.3c-20.7,0-39.8,10.9-50.3,28.7c-0.8,1.1-0.7,2.6,0.4,3.5c1.1,0.8,2.6,0.7,3.5-0.4
			c0.1-0.2,0.3-0.4,0.3-0.6c9.7-16.2,27.2-26.1,46-26.1c18.8,0.1,36.3,10,46,26.1c0.8,1.1,2.4,1.2,3.5,0.4c0.9-0.7,1.2-1.9,0.8-2.9
			c-10.6-17.7-29.7-28.6-50.3-28.7H314.8z"/>
		<path class="st2" d="M381.8,442.3c-26.3-37-77.5-45.7-114.5-19.4c-7.5,5.3-14.1,11.9-19.4,19.4c-1,1-0.9,2.6,0.1,3.6
			c1,1,2.6,0.9,3.6-0.1c0.2-0.2,0.3-0.4,0.4-0.6c24.6-34.8,72.8-43,107.6-18.3c7.1,5,13.3,11.2,18.3,18.3c0.5,0.6,1.2,1,2,1
			c0.5,0,1.1-0.2,1.5-0.5C382.4,444.9,382.6,443.4,381.8,442.3C381.8,442.2,381.8,442.2,381.8,442.3L381.8,442.3z"/>
	</g>
</g>
<path class="st2" d="M314.8,455c-14.6,0.1-27.6,9.1-32.8,22.8c-0.5,1.3,0.1,2.7,1.4,3.2c0,0,0.1,0,0.1,0.1c0.3,0.1,0.6,0.1,0.9,0
	c1,0,2-0.6,2.4-1.6c5.7-15.5,22.8-23.4,38.3-17.7c8.2,3,14.7,9.5,17.7,17.7c0.6,1.3,2,1.9,3.3,1.3c1.2-0.5,1.8-1.8,1.4-3.1
	C342.4,464.1,329.4,455,314.8,455L314.8,455z"/>
<path class="st2" d="M314.5,476.1c-8.2,0-14.9,6.7-14.9,14.9c0,8.2,6.7,14.9,14.9,14.9c8.2,0,14.9-6.7,14.9-14.9
	C329.4,482.8,322.8,476.2,314.5,476.1z M314.5,501c-5.5,0-9.9-4.4-9.9-9.9s4.4-9.9,9.9-9.9s9.9,4.4,9.9,9.9
	C324.4,496.6,320,501,314.5,501z"/>
</svg>
