<svg xmlns="http://www.w3.org/2000/svg" viewBox="0 0 40 40" width="100%" height="100%" preserveAspectRatio="xMidYMid">
  <defs>
    <style>
      .cls-1{fill:#fff;}.cls-2{fill-rule:evenodd;}
    </style>
  </defs>
  <title>
    trojmiasto-LemonTax-1
  </title>
  <g id="Warstwa_2" data-name="Warstwa 2">
    <g id="Warstwa_1-2" data-name="Warstwa 1">
      <path class="cls-1" d="M40,20A20,20,0,1,1,20,0,20,20,0,0,1,40,20Zm0,0"/>
      <path class="cls-2" d="M15.64,18.6C13.54,15.86,10.07,14.81,5.53,17a.33.33,0,0,1-.37-.54c2.5-2.41,4.62-3.14,6.48-3.07,5,.13,7.88,6.67,10.65,6.1,3.54-.74,8.24,0,10.88,5.95a.33.33,0,0,1-.56.34c-4-5-7.42-4.11-12.42-1.65a.33.33,0,0,1-.41-.09L15.64,18.6Z"/>
    </g>
  </g>
</svg>
